<svg width="25" height="26" viewBox="0 0 25 26" fill="none" xmlns="http://www.w3.org/2000/svg">
<ellipse cx="12.1795" cy="13.3179" rx="12.1795" ry="12.5" fill="#F3F0E7" fill-opacity="0.8"/>
<g clip-path="url(#clip0_1508_11077)">
<path d="M17.4657 16.0776V17.7603C17.4664 17.9165 17.4344 18.0712 17.3718 18.2143C17.3092 18.3574 17.2174 18.4859 17.1023 18.5915C16.9872 18.6971 16.8513 18.7775 16.7033 18.8275C16.5554 18.8776 16.3986 18.8962 16.243 18.8821C14.517 18.6946 12.8591 18.1048 11.4024 17.1602C10.0472 16.299 8.89822 15.15 8.03705 13.7948C7.08913 12.3315 6.49921 10.6655 6.3151 8.9318C6.30108 8.77669 6.31952 8.62036 6.36923 8.47277C6.41894 8.32518 6.49883 8.18955 6.60383 8.07453C6.70883 7.95951 6.83662 7.86761 6.97908 7.80468C7.12155 7.74176 7.27555 7.70919 7.43129 7.70904H9.11398C9.38619 7.70636 9.65008 7.80275 9.85647 7.98025C10.0629 8.15775 10.1977 8.40424 10.2358 8.67378C10.3068 9.21228 10.4385 9.74102 10.6284 10.2499C10.7039 10.4507 10.7202 10.6688 10.6755 10.8786C10.6307 11.0884 10.5268 11.2809 10.376 11.4334L9.66366 12.1457C10.4621 13.55 11.6248 14.7127 13.029 15.5111L13.7414 14.7988C13.8939 14.648 14.0864 14.5441 14.2962 14.4993C14.5059 14.4546 14.7241 14.4709 14.9249 14.5464C15.4338 14.7363 15.9625 14.868 16.501 14.939C16.7735 14.9774 17.0223 15.1147 17.2002 15.3246C17.3781 15.5346 17.4726 15.8026 17.4657 16.0776Z" stroke="#1E3257" stroke-width="1.12179" stroke-linecap="round" stroke-linejoin="round"/>
</g>
<defs>
<clipPath id="clip0_1508_11077">
<rect width="13.4615" height="13.4615" fill="white" transform="translate(5.125 6.58691)"/>
</clipPath>
</defs>
</svg>
