<svg width="12" height="15" viewBox="0 0 12 15" fill="none" xmlns="http://www.w3.org/2000/svg">
<path opacity="0.8" d="M5.10734 1.75179L5.10728 1.75164C4.99042 1.49179 4.78306 1.2833 4.52385 1.16504C4.26478 1.04684 3.97065 1.0268 3.69782 1.10877C3.69779 1.10878 3.69776 1.10879 3.69773 1.1088C3.69767 1.10882 3.69761 1.10884 3.69755 1.10885L3.07043 1.29778C3.07037 1.29779 3.07032 1.29781 3.07027 1.29783C2.6167 1.43464 2.21165 1.69816 1.90278 2.05738C1.59387 2.41664 1.39402 2.85667 1.32674 3.32568L1.32673 3.32578C1.09288 4.95406 1.60736 6.93531 2.97784 9.30903C4.34479 11.6766 5.80013 13.1116 7.32417 13.7259C7.76593 13.904 8.24954 13.9514 8.71748 13.8626C9.18542 13.7738 9.61803 13.5525 9.96385 13.225L10.4379 12.7754L10.4384 12.775C10.645 12.5794 10.7736 12.3156 10.8002 12.0323C10.8269 11.7491 10.7498 11.4659 10.5834 11.2352L10.5833 11.2351L9.39667 9.58995C9.39661 9.58986 9.39654 9.58978 9.39648 9.58969C9.39647 9.58967 9.39645 9.58965 9.39644 9.58963C9.30645 9.46519 9.1798 9.37198 9.03421 9.32307C8.8885 9.27412 8.73113 9.27199 8.58415 9.31698L8.58395 9.31704L6.78882 9.86582L6.75842 9.87512L6.72718 9.88101L6.68079 9.88976L6.66903 9.89198L6.6572 9.89371C6.39472 9.93204 6.1783 9.81429 6.06613 9.74172C5.93199 9.65493 5.80195 9.53642 5.67854 9.4033C5.42936 9.13453 5.1484 8.74193 4.85107 8.22686L4.85106 8.22685C4.5411 7.68988 4.3366 7.23517 4.23402 6.87234C4.18323 6.69271 4.14972 6.50917 4.15381 6.3356C4.15758 6.17564 4.19654 5.92381 4.39883 5.73125L4.40303 5.72725L4.40305 5.72727L5.31594 4.87565L5.3161 4.8755C5.56188 4.6464 5.72977 4.3461 5.79622 4.01673C5.86265 3.68747 5.82437 3.34568 5.68676 3.03928L5.10734 1.75179ZM5.10734 1.75179L5.68663 3.03899L5.10734 1.75179Z" stroke="#182846" stroke-width="1.15291"/>
</svg>
