<svg width="256" height="271" viewBox="0 0 256 271" fill="none" xmlns="http://www.w3.org/2000/svg">
<circle cx="128" cy="131" r="117" transform="rotate(90 128 131)" fill="#D7DFED"/>
<path d="M108.372 70.73V75H107.364V70.73L103.654 65.088H104.914L107.868 69.764L110.822 65.088H112.082L108.372 70.73ZM118.234 71.724C118.234 73.698 116.792 75.168 114.748 75.168C112.718 75.168 111.276 73.698 111.276 71.724C111.276 69.75 112.718 68.28 114.748 68.28C116.792 68.28 118.234 69.75 118.234 71.724ZM117.226 71.724C117.226 70.254 116.274 69.12 114.748 69.12C113.236 69.12 112.284 70.254 112.284 71.724C112.284 73.194 113.236 74.328 114.748 74.328C116.274 74.328 117.226 73.194 117.226 71.724ZM125.594 75H124.642C124.6 74.65 124.6 74.3 124.6 73.95H124.572C124.166 74.664 123.242 75.168 122.374 75.168C120.708 75.168 119.91 74.23 119.91 72.606V68.448H120.834V72.074C120.834 73.53 121.24 74.328 122.612 74.328C122.808 74.328 124.6 74.202 124.6 71.808V68.448H125.524V73.558C125.524 73.908 125.566 74.524 125.594 75ZM131.586 79.032V68.448H132.51V69.54H132.538C133.14 68.658 134.218 68.28 135.086 68.28C137.13 68.28 138.572 69.75 138.572 71.724C138.572 73.698 137.13 75.168 135.086 75.168C134.218 75.168 133.14 74.79 132.538 73.908H132.51V79.032H131.586ZM137.564 71.724C137.564 70.254 136.612 69.12 135.086 69.12C133.574 69.12 132.468 70.254 132.468 71.724C132.468 73.194 133.574 74.328 135.086 74.328C136.612 74.328 137.564 73.194 137.564 71.724ZM143.883 70.982H144.345V70.814C144.345 69.68 143.799 69.12 142.665 69.12C141.895 69.12 141.223 69.386 140.663 69.89L140.103 69.232C140.705 68.616 141.643 68.28 142.875 68.28C144.163 68.28 145.269 69.008 145.269 70.604V73.53C145.269 74.034 145.325 74.65 145.381 75H144.485C144.429 74.678 144.401 74.286 144.401 73.936H144.373C143.841 74.804 143.113 75.168 142.063 75.168C140.901 75.168 139.809 74.524 139.809 73.25C139.809 71.122 142.315 70.982 143.883 70.982ZM144.345 71.738H143.869C142.931 71.738 140.817 71.808 140.817 73.124C140.817 73.992 141.615 74.328 142.357 74.328C143.701 74.328 144.345 73.376 144.345 72.214V71.738ZM147.782 68.448L149.84 73.866L151.842 68.448H152.962L149.686 76.708C149.294 77.716 148.762 78.36 147.628 78.36C147.348 78.36 147.054 78.346 146.774 78.262L146.872 77.366C147.082 77.478 147.32 77.52 147.572 77.52C148.216 77.52 148.552 77.086 148.832 76.344L149.308 75.084L146.62 68.448H147.782Z" fill="#647EB8"/>
<path d="M99.5682 96V94.164L104.68 89.088C105.382 88.404 106.084 87.522 106.084 86.478C106.084 85.218 105.094 84.444 103.888 84.444C102.646 84.444 101.782 85.2 101.566 86.406L99.6942 86.244C100.036 83.994 101.71 82.932 103.906 82.932C106.102 82.932 107.92 84.12 107.92 86.46C107.92 88.134 106.84 89.34 105.706 90.438L101.512 94.488H107.92V96H99.5682ZM111.388 96L116.554 84.768H110.398V83.256H118.408V84.732L113.332 96H111.388ZM124.396 93.948L122.884 98.376H121.408L122.65 93.948H124.396ZM134.932 83.256V84.876H129.766L129.712 88.062C130.072 87.9 131.008 87.792 131.422 87.792C133.816 87.792 135.382 89.52 135.382 92.004C135.382 94.542 133.384 96.216 130.9 96.216C129.172 96.216 127.66 95.298 127.066 93.642L128.812 93.048C129.262 94.218 130.036 94.704 131.17 94.704C132.538 94.704 133.654 93.714 133.654 92.094C133.654 90.24 132.394 89.304 130.576 89.304C129.928 89.304 128.812 89.538 127.948 89.97L128.092 83.256H134.932ZM137.968 89.628C137.968 86.838 138.742 83.04 142.36 83.04C145.978 83.04 146.752 86.838 146.752 89.628C146.752 92.31 145.978 96.216 142.36 96.216C138.742 96.216 137.968 92.31 137.968 89.628ZM139.696 89.628C139.696 91.284 139.948 94.704 142.36 94.704C144.772 94.704 145.024 91.284 145.024 89.628C145.024 87.864 144.772 84.552 142.36 84.552C139.948 84.552 139.696 87.864 139.696 89.628ZM148.87 89.628C148.87 86.838 149.644 83.04 153.262 83.04C156.88 83.04 157.654 86.838 157.654 89.628C157.654 92.31 156.88 96.216 153.262 96.216C149.644 96.216 148.87 92.31 148.87 89.628ZM150.598 89.628C150.598 91.284 150.85 94.704 153.262 94.704C155.674 94.704 155.926 91.284 155.926 89.628C155.926 87.864 155.674 84.552 153.262 84.552C150.85 84.552 150.598 87.864 150.598 89.628Z" fill="#1E3257"/>
<path opacity="0.1" d="M127.995 131.027H244.996M128.001 131.013H11M128.004 130.999L69.5037 30M128.003 131.003L186.504 30.0039" stroke="#577BBA" stroke-width="0.5"/>
<mask id="path-5-outside-1_1441_12792" maskUnits="userSpaceOnUse" x="61" y="131" width="134" height="135" fill="black">
<rect fill="white" x="61" y="131" width="134" height="135"/>
<path d="M186.498 244.326C168.705 254.599 148.52 260.005 127.974 260C107.428 259.995 87.2461 254.581 69.4572 244.3L128 143L186.498 244.326Z"/>
</mask>
<path d="M186.498 244.326C168.705 254.599 148.52 260.005 127.974 260C107.428 259.995 87.2461 254.581 69.4572 244.3L128 143L186.498 244.326Z" fill="url(#paint0_linear_1441_12792)"/>
<path d="M186.498 244.326C168.705 254.599 148.52 260.005 127.974 260C107.428 259.995 87.2461 254.581 69.4572 244.3L128 143L186.498 244.326Z" fill="#5287EE" fill-opacity="0.4"/>
<path d="M186.498 244.326C168.705 254.599 148.52 260.005 127.974 260C107.428 259.995 87.2461 254.581 69.4572 244.3L128 143L186.498 244.326Z" stroke="#FBFBFB" stroke-width="12" mask="url(#path-5-outside-1_1441_12792)"/>
<path opacity="0.5" d="M106.009 208.088L108.389 216.572H108.417L110.909 208.088H112.113L114.605 216.572H114.633L116.985 208.088H118.105L115.179 218H114.003L111.511 209.516H111.483L108.991 218H107.815L104.889 208.088H106.009ZM124.975 214.976H119.515C119.627 216.292 120.621 217.328 121.923 217.328C122.903 217.328 123.659 216.782 124.023 216.194L124.737 216.782C123.967 217.762 123.001 218.168 121.923 218.168C119.977 218.168 118.535 216.698 118.535 214.724C118.535 212.75 119.977 211.28 121.839 211.28C123.827 211.294 124.975 212.764 124.975 214.556V214.976ZM119.543 214.22H123.967C123.967 212.974 123.169 212.12 121.839 212.12C120.635 212.12 119.543 213.142 119.543 214.22ZM130.547 222.032V211.448H131.471V212.54H131.499C132.101 211.658 133.179 211.28 134.047 211.28C136.091 211.28 137.533 212.75 137.533 214.724C137.533 216.698 136.091 218.168 134.047 218.168C133.179 218.168 132.101 217.79 131.499 216.908H131.471V222.032H130.547ZM136.525 214.724C136.525 213.254 135.573 212.12 134.047 212.12C132.535 212.12 131.429 213.254 131.429 214.724C131.429 216.194 132.535 217.328 134.047 217.328C135.573 217.328 136.525 216.194 136.525 214.724ZM142.844 213.982H143.306V213.814C143.306 212.68 142.76 212.12 141.626 212.12C140.856 212.12 140.184 212.386 139.624 212.89L139.064 212.232C139.666 211.616 140.604 211.28 141.836 211.28C143.124 211.28 144.23 212.008 144.23 213.604V216.53C144.23 217.034 144.286 217.65 144.342 218H143.446C143.39 217.678 143.362 217.286 143.362 216.936H143.334C142.802 217.804 142.074 218.168 141.024 218.168C139.862 218.168 138.77 217.524 138.77 216.25C138.77 214.122 141.276 213.982 142.844 213.982ZM143.306 214.738H142.83C141.892 214.738 139.778 214.808 139.778 216.124C139.778 216.992 140.576 217.328 141.318 217.328C142.662 217.328 143.306 216.376 143.306 215.214V214.738ZM146.743 211.448L148.801 216.866L150.803 211.448H151.923L148.647 219.708C148.255 220.716 147.723 221.36 146.589 221.36C146.309 221.36 146.015 221.346 145.735 221.262L145.833 220.366C146.043 220.478 146.281 220.52 146.533 220.52C147.177 220.52 147.513 220.086 147.793 219.344L148.269 218.084L145.581 211.448H146.743Z" fill="#D5E1F9"/>
<path d="M105.019 241V239.164L110.131 234.088C110.833 233.404 111.535 232.522 111.535 231.478C111.535 230.218 110.545 229.444 109.339 229.444C108.097 229.444 107.233 230.2 107.017 231.406L105.145 231.244C105.487 228.994 107.161 227.932 109.357 227.932C111.553 227.932 113.371 229.12 113.371 231.46C113.371 233.134 112.291 234.34 111.157 235.438L106.963 239.488H113.371V241H105.019ZM118.945 238.948L117.433 243.376H115.957L117.199 238.948H118.945ZM129.481 228.256V229.876H124.315L124.261 233.062C124.621 232.9 125.557 232.792 125.971 232.792C128.365 232.792 129.931 234.52 129.931 237.004C129.931 239.542 127.933 241.216 125.449 241.216C123.721 241.216 122.209 240.298 121.615 238.642L123.361 238.048C123.811 239.218 124.585 239.704 125.719 239.704C127.087 239.704 128.203 238.714 128.203 237.094C128.203 235.24 126.943 234.304 125.125 234.304C124.477 234.304 123.361 234.538 122.497 234.97L122.641 228.256H129.481ZM132.517 234.628C132.517 231.838 133.291 228.04 136.909 228.04C140.527 228.04 141.301 231.838 141.301 234.628C141.301 237.31 140.527 241.216 136.909 241.216C133.291 241.216 132.517 237.31 132.517 234.628ZM134.245 234.628C134.245 236.284 134.497 239.704 136.909 239.704C139.321 239.704 139.573 236.284 139.573 234.628C139.573 232.864 139.321 229.552 136.909 229.552C134.497 229.552 134.245 232.864 134.245 234.628ZM143.419 234.628C143.419 231.838 144.193 228.04 147.811 228.04C151.429 228.04 152.203 231.838 152.203 234.628C152.203 237.31 151.429 241.216 147.811 241.216C144.193 241.216 143.419 237.31 143.419 234.628ZM145.147 234.628C145.147 236.284 145.399 239.704 147.811 239.704C150.223 239.704 150.475 236.284 150.475 234.628C150.475 232.864 150.223 229.552 147.811 229.552C145.399 229.552 145.147 232.864 145.147 234.628Z" fill="#D5E1F9"/>
<defs>
<linearGradient id="paint0_linear_1441_12792" x1="10.9999" y1="225.286" x2="224.436" y2="143.87" gradientUnits="userSpaceOnUse">
<stop offset="0.274872" stop-color="#1E3257"/>
<stop offset="1" stop-color="#355CA4"/>
</linearGradient>
</defs>
</svg>
