<svg width="25" height="26" viewBox="0 0 25 26" fill="none" xmlns="http://www.w3.org/2000/svg">
<ellipse cx="12.1795" cy="13.3179" rx="12.1795" ry="12.5" fill="#F3F0E7" fill-opacity="0.8"/>
<path d="M17.25 12.5262C17.252 13.2961 17.0721 14.0557 16.725 14.7429C16.3134 15.5664 15.6807 16.2591 14.8977 16.7433C14.1147 17.2275 13.2123 17.4842 12.2917 17.4846C11.5217 17.4866 10.7622 17.3067 10.075 16.9596L6.75 18.0679L7.85833 14.7429C7.51121 14.0557 7.33133 13.2961 7.33333 12.5262C7.33369 11.6056 7.59036 10.7032 8.07459 9.92021C8.55882 9.1372 9.25148 8.50447 10.075 8.09289C10.7622 7.74576 11.5217 7.56588 12.2917 7.56789H12.5833C13.7992 7.63497 14.9476 8.14817 15.8087 9.00922C16.6697 9.87028 17.1829 11.0187 17.25 12.2346V12.5262Z" stroke="#182846" stroke-width="1.16667" stroke-linecap="round" stroke-linejoin="round"/>
</svg>
