<svg width="8" height="11" viewBox="0 0 8 11" fill="none" xmlns="http://www.w3.org/2000/svg">
<path d="M6.04967 2.84483H8V3.88793H6.04881L6.01537 4.03944C5.84771 4.79922 5.40362 5.48198 4.758 5.97264C4.11239 6.46329 3.30469 6.73175 2.47107 6.73276H1.1492L5.73519 11H4.15016L0 7.1383V5.68965L2.47196 5.68965C2.98665 5.68818 3.48819 5.53845 3.90779 5.26109C4.32732 4.98372 4.6443 4.59227 4.81519 4.14056L4.91076 3.88793H0V2.84483H4.91192L4.81493 2.59152C4.47104 1.6934 3.55701 1.0431 2.47134 1.0431H0V0H8V1.0431H5.09367L5.34752 1.34873C5.67635 1.74464 5.90475 2.20463 6.01558 2.69426L6.04967 2.84483Z" fill="#877C61"/>
</svg>
