<svg width="8" height="11" viewBox="0 0 8 11" fill="none" xmlns="http://www.w3.org/2000/svg">
<g clip-path="url(#clip0_1910_7692)">
<path d="M3.54149 10.9466V9.44063L3.8484 9.66242C3.10158 9.65466 2.4008 9.57291 1.74605 9.41724C1.09131 9.2538 0.518404 9.01643 0.0273438 8.70508L0.549095 7.74775C1.04015 8.04352 1.56191 8.26536 2.11435 8.41322C2.67702 8.56113 3.31131 8.63506 4.0172 8.63506C4.84587 8.63506 5.45458 8.51831 5.84334 8.28479C6.24232 8.04352 6.44181 7.73999 6.44181 7.37419C6.44181 7.07061 6.29859 6.82933 6.01214 6.65032C5.73592 6.47136 5.26532 6.32735 4.60034 6.21836L3.01974 5.96156C2.07855 5.80589 1.38288 5.54903 0.932732 5.191C0.482597 4.83297 0.257528 4.3582 0.257528 3.76668C0.257528 3.30747 0.400754 2.89886 0.687206 2.54083C0.983888 2.18281 1.39311 1.89872 1.91485 1.68857C2.44684 1.47843 3.06577 1.35779 3.77168 1.32666L3.54149 1.49011V0.0307617H4.79983V1.49011L4.53896 1.32666C5.11186 1.34223 5.67965 1.43173 6.24232 1.59518C6.805 1.75084 7.28071 1.98433 7.66945 2.29566L7.16306 3.21797C6.76407 2.9222 6.31394 2.70428 5.81264 2.56418C5.31135 2.4163 4.75891 2.34236 4.15532 2.34236C3.41873 2.34236 2.83559 2.47079 2.40591 2.72763C1.98647 2.98447 1.77675 3.31915 1.77675 3.73165C1.77675 4.04298 1.90974 4.29594 2.17573 4.49051C2.44172 4.68509 2.88163 4.83297 3.49546 4.93415L5.07605 5.191C6.05817 5.34666 6.78965 5.59571 7.27048 5.93816C7.75129 6.28062 7.99173 6.73597 7.99173 7.30412C7.99173 7.74775 7.8434 8.14084 7.54666 8.4833C7.25002 8.81793 6.8408 9.08645 6.31905 9.28881C5.80753 9.4834 5.21416 9.60407 4.53896 9.65075L4.79983 9.42891V10.9466H3.54149Z" fill="#877C61"/>
</g>
<defs>
<clipPath id="clip0_1910_7692">
<rect width="8" height="11" fill="white"/>
</clipPath>
</defs>
</svg>
