<svg width="8" height="11" viewBox="0 0 8 11" fill="none" xmlns="http://www.w3.org/2000/svg">
<path d="M5.22047 11C4.54323 11 3.93652 10.8428 3.40036 10.5283C2.8642 10.2139 2.42211 9.74732 2.07408 9.12859C1.73545 8.50992 1.505 7.75934 1.38272 6.87689L1.59436 7.15074H0V6.19224H1.53792L1.32628 6.40524C1.29806 6.10095 1.28395 5.7916 1.28395 5.47716C1.29336 5.15259 1.30747 4.85338 1.32628 4.57952L1.55203 4.79252H0V3.83402H1.66491L1.38272 4.12309C1.505 3.23051 1.73545 2.47994 2.07408 1.87136C2.42211 1.25265 2.8642 0.786079 3.40036 0.471645C3.93652 0.157215 4.54323 0 5.22047 0C5.77545 0 6.29279 0.106501 6.7725 0.319502C7.26161 0.532502 7.67082 0.862149 8 1.30843L7.49206 2.41908C7.19109 2.03365 6.85719 1.75979 6.49032 1.59751C6.13288 1.43522 5.74252 1.35408 5.31924 1.35408C4.68902 1.35408 4.15757 1.57722 3.72488 2.02351C3.3016 2.45965 3.01471 3.13923 2.8642 4.06223L2.61023 3.83402H5.19225V4.79252H2.51147L2.79366 4.59474C2.76544 4.83816 2.75133 5.12724 2.75133 5.46195C2.75133 5.79667 2.76544 6.09588 2.79366 6.3596L2.51147 6.19224H5.19225V7.15074H2.68079L2.8642 6.92253C3.01471 7.85568 3.3016 8.54536 3.72488 8.99171C4.15757 9.4278 4.68902 9.64588 5.31924 9.64588C5.74252 9.64588 6.13288 9.56475 6.49032 9.40248C6.85719 9.23002 7.19109 8.9562 7.49206 8.58087L8 9.6763C7.67082 10.1226 7.26161 10.4573 6.7725 10.6805C6.29279 10.8935 5.77545 11 5.22047 11Z" fill="#877C61"/>
</svg>
