<svg width="61" height="60" viewBox="0 0 61 60" fill="none" xmlns="http://www.w3.org/2000/svg">
<g clip-path="url(#clip0_1529_13908)">
<path d="M50.5039 30C50.5039 18.9544 41.5495 10 30.5039 10C19.4583 10 10.5039 18.9542 10.5039 30C10.5039 39.9825 17.8177 48.2567 27.3789 49.757V35.7812H22.3008V30H27.3789V25.5937C27.3789 20.5812 30.3648 17.8125 34.9331 17.8125C37.1214 17.8125 39.4102 18.2031 39.4102 18.2031V23.125H36.8883C34.4036 23.125 33.6289 24.6667 33.6289 26.2484V30H39.1758L38.2891 35.7812H33.6289V49.757C43.1902 48.2567 50.5039 39.9827 50.5039 30Z" fill="#3071C6"/>
<path d="M38.2891 35.7812L39.1758 30H33.6289V26.2484C33.6289 24.6666 34.4038 23.125 36.8883 23.125H39.4102V18.2031C39.4102 18.2031 37.1214 17.8125 34.9331 17.8125C30.3648 17.8125 27.3789 20.5813 27.3789 25.5938V30H22.3008V35.7812H27.3789V49.757C28.4127 49.919 29.4575 50.0003 30.5039 50C31.5503 50.0003 32.5951 49.9191 33.6289 49.757V35.7812H38.2891Z" fill="white"/>
</g>
<rect x="1.00195" y="0.5" width="59" height="59" rx="29.5" stroke="#DFDCD3"/>
<defs>
<clipPath id="clip0_1529_13908">
<rect width="40" height="40" fill="white" transform="translate(10.502 10)"/>
</clipPath>
</defs>
</svg>
