<svg width="12" height="9" viewBox="0 0 12 9" fill="none" xmlns="http://www.w3.org/2000/svg">
<line x1="0.894287" y1="1.95118" x2="11.8033" y2="1.95118" stroke="#182846" stroke-width="0.885246"/>
<line x1="0.894287" y1="7.042" x2="11.8033" y2="7.042" stroke="#182846" stroke-width="0.885246"/>
<path d="M5.26351 1.95453C5.26351 2.75785 4.6123 3.40907 3.80898 3.40907C3.00566 3.40907 2.35445 2.75785 2.35445 1.95453C2.35445 1.15122 3.00566 0.5 3.80898 0.5C4.6123 0.5 5.26351 1.15122 5.26351 1.95453Z" fill="#182846"/>
<path d="M10.3548 7.04511C10.3548 7.84843 9.70362 8.49964 8.9003 8.49964C8.09699 8.49964 7.44577 7.84843 7.44577 7.04511C7.44577 6.24179 8.09699 5.59058 8.9003 5.59058C9.70362 5.59058 10.3548 6.24179 10.3548 7.04511Z" fill="#182846"/>
</svg>
