<svg width="61" height="60" viewBox="0 0 61 60" fill="none" xmlns="http://www.w3.org/2000/svg">
<path d="M50.1122 26.0832H48.5011V26.0002H30.5006V34.0002H41.8039C40.1549 38.6572 35.7237 42.0002 30.5006 42.0002C23.8734 42.0002 18.5002 36.6272 18.5002 30.0002C18.5002 23.3732 23.8734 18.0002 30.5006 18.0002C33.5597 18.0002 36.3428 19.1542 38.4618 21.0392L44.119 15.3822C40.5469 12.0532 35.7687 10.0002 30.5006 10.0002C19.4553 10.0002 10.5 18.9552 10.5 30.0002C10.5 41.0452 19.4553 50.0002 30.5006 50.0002C41.5459 50.0002 50.5012 41.0452 50.5012 30.0002C50.5012 28.6592 50.3632 27.3502 50.1122 26.0832Z" fill="#FFC107"/>
<path d="M12.8008 20.691L19.372 25.51C21.15 21.108 25.4562 18 30.4953 18C33.5544 18 36.3375 19.154 38.4565 21.039L44.1137 15.382C40.5416 12.053 35.7635 10 30.4953 10C22.8131 10 16.1509 14.337 12.8008 20.691Z" fill="#FF3D00"/>
<path d="M30.5047 49.9987C35.6709 49.9987 40.365 48.0217 43.9141 44.8067L37.7239 39.5687C35.6484 41.1471 33.1123 42.0008 30.5047 41.9987C25.3026 41.9987 20.8855 38.6817 19.2214 34.0527L12.6992 39.0777C16.0093 45.5547 22.7315 49.9987 30.5047 49.9987Z" fill="#4CAF50"/>
<path d="M50.1116 26.0803H48.5005V25.9973H30.5V33.9973H41.8033C41.0145 36.2137 39.5936 38.1505 37.7162 39.5683L37.7192 39.5663L43.9094 44.8043C43.4714 45.2023 50.5006 39.9973 50.5006 29.9973C50.5006 28.6563 50.3626 27.3473 50.1116 26.0803Z" fill="#1976D2"/>
<rect x="1" y="0.5" width="59.0012" height="59" rx="29.5" stroke="#DFDCD3"/>
</svg>
