<svg width="16" height="17" viewBox="0 0 16 17" fill="none" xmlns="http://www.w3.org/2000/svg">
<rect width="16" height="16" transform="translate(0 0.588867)" fill="white"/>
<path d="M13.1953 2.68262H11.9375V2.02637C11.9375 1.78476 11.7416 1.58887 11.5 1.58887C11.2584 1.58887 11.0625 1.78476 11.0625 2.02637V2.68262H4.9375V2.02637C4.9375 1.78476 4.74164 1.58887 4.5 1.58887C4.25836 1.58887 4.0625 1.78476 4.0625 2.02637V2.68262H2.80469C1.80957 2.68262 1 3.49218 1 4.4873V13.7842C1 14.7793 1.80957 15.5889 2.80469 15.5889H13.1953C14.1904 15.5889 15 14.7793 15 13.7842V4.4873C15 3.49218 14.1904 2.68262 13.1953 2.68262ZM14.125 13.7842C14.125 14.2976 13.7088 14.7139 13.1953 14.7139H2.80469C2.29123 14.7139 1.875 14.2976 1.875 13.7842V5.40137C1.875 4.84908 2.32282 4.40137 2.87511 4.40137C3.16366 4.40137 3.42391 4.40137 3.50879 4.40137H5.00586H8C8.47193 4.40137 11.5152 4.40137 13.1268 4.40137C13.6791 4.40137 14.125 4.84908 14.125 5.40137V13.7842Z" fill="url(#paint0_linear_1338_16762)"/>
<path d="M13.1953 2.68262H11.9375V2.02637C11.9375 1.78476 11.7416 1.58887 11.5 1.58887C11.2584 1.58887 11.0625 1.78476 11.0625 2.02637V2.68262H4.9375V2.02637C4.9375 1.78476 4.74164 1.58887 4.5 1.58887C4.25836 1.58887 4.0625 1.78476 4.0625 2.02637V2.68262H2.80469C1.80957 2.68262 1 3.49218 1 4.4873V13.7842C1 14.7793 1.80957 15.5889 2.80469 15.5889H13.1953C14.1904 15.5889 15 14.7793 15 13.7842V4.4873C15 3.49218 14.1904 2.68262 13.1953 2.68262ZM14.125 13.7842C14.125 14.2976 13.7088 14.7139 13.1953 14.7139H2.80469C2.29123 14.7139 1.875 14.2976 1.875 13.7842V5.40137C1.875 4.84908 2.32282 4.40137 2.87511 4.40137C3.16366 4.40137 3.42391 4.40137 3.50879 4.40137H5.00586H8C8.47193 4.40137 11.5152 4.40137 13.1268 4.40137C13.6791 4.40137 14.125 4.84908 14.125 5.40137V13.7842Z" fill="#5287EE" fill-opacity="0.4"/>
<path d="M4.18359 8.08887H6.72905M4.18359 11.2707H6.72905M9.2745 8.08887H11.82M9.2745 11.2707H11.82" stroke="url(#paint1_linear_1338_16762)" stroke-width="0.8"/>
<path d="M4.18359 8.08887H6.72905M4.18359 11.2707H6.72905M9.2745 8.08887H11.82M9.2745 11.2707H11.82" stroke="#5287EE" stroke-opacity="0.4" stroke-width="0.8"/>
<defs>
<linearGradient id="paint0_linear_1338_16762" x1="18.3504" y1="-1.11723" x2="0.817458" y2="-0.922113" gradientUnits="userSpaceOnUse">
<stop stop-color="#1E3257"/>
<stop offset="1" stop-color="#2E4C85"/>
</linearGradient>
<linearGradient id="paint1_linear_1338_16762" x1="13.6475" y1="7.47385" x2="4.08966" y2="7.72912" gradientUnits="userSpaceOnUse">
<stop stop-color="#1E3257"/>
<stop offset="1" stop-color="#2E4C85"/>
</linearGradient>
</defs>
</svg>
