<svg width="16" height="17" viewBox="0 0 16 17" fill="none" xmlns="http://www.w3.org/2000/svg">
<path d="M7.31374 6.71735C7.31374 6.4551 7.31311 6.10536 7.23354 5.84322C6.91189 4.44463 5.62391 3.6583 4.41887 3.5943C2.60969 3.49822 1.34142 4.68135 1.04175 6.71735C0.784427 8.46558 1.76529 9.86416 2.64981 10.8257L7.31374 15.1089L11.9779 10.8257C12.8624 9.86416 13.8432 8.46558 13.5859 6.71735C13.2862 4.68135 12.018 3.49822 10.2088 3.5943C9.00375 3.6583 7.71578 4.44463 7.39413 5.84322C7.31456 6.10536 7.31393 6.80474 7.31393 7.06698" stroke="url(#paint0_linear_1338_16751)" stroke-width="0.8"/>
<path d="M7.31374 6.71735C7.31374 6.4551 7.31311 6.10536 7.23354 5.84322C6.91189 4.44463 5.62391 3.6583 4.41887 3.5943C2.60969 3.49822 1.34142 4.68135 1.04175 6.71735C0.784427 8.46558 1.76529 9.86416 2.64981 10.8257L7.31374 15.1089L11.9779 10.8257C12.8624 9.86416 13.8432 8.46558 13.5859 6.71735C13.2862 4.68135 12.018 3.49822 10.2088 3.5943C9.00375 3.6583 7.71578 4.44463 7.39413 5.84322C7.31456 6.10536 7.31393 6.80474 7.31393 7.06698" stroke="#5287EE" stroke-opacity="0.4" stroke-width="0.8"/>
<circle cx="13.5" cy="5.08887" r="2.5" fill="url(#paint1_linear_1338_16751)"/>
<circle cx="13.5" cy="5.08887" r="2.5" fill="#5287EE" fill-opacity="0.4"/>
<defs>
<linearGradient id="paint0_linear_1338_16751" x1="16.6497" y1="1.36214" x2="0.835746" y2="1.55504" gradientUnits="userSpaceOnUse">
<stop stop-color="#1E3257"/>
<stop offset="1" stop-color="#2E4C85"/>
</linearGradient>
<linearGradient id="paint1_linear_1338_16751" x1="17.1966" y1="1.6224" x2="10.9348" y2="1.69209" gradientUnits="userSpaceOnUse">
<stop stop-color="#1E3257"/>
<stop offset="1" stop-color="#2E4C85"/>
</linearGradient>
</defs>
</svg>
