<svg width="16" height="17" viewBox="0 0 16 17" fill="none" xmlns="http://www.w3.org/2000/svg">
<path fill-rule="evenodd" clip-rule="evenodd" d="M6.41585 2.82866C6.3147 2.34249 6.09199 2.27418 5.89177 2.21189C5.72753 2.15923 5.53756 2.11268 5.34417 2.06088C5.15527 2.01029 4.82763 1.99183 4.49859 2.17654C4.16955 2.36126 3.26529 2.78602 2.92759 4.04682C2.58989 5.30762 3.28393 6.80146 3.38239 7.00973C3.48085 7.218 4.59587 10.3794 7.2173 12.1816C9.39955 13.6799 9.93523 13.6415 10.4678 13.7408C11.0003 13.8401 12.3199 13.5743 12.7185 13.04C13.117 12.5058 13.2545 11.9926 13.2106 11.8683C13.1668 11.7439 12.9953 11.6287 12.7421 11.4223C12.4934 11.2171 11.2558 10.2229 11.0176 10.0682C10.7795 9.91349 10.6025 9.81845 10.3399 10.0253C10.0828 10.2293 9.37931 10.6602 9.16745 10.7853C8.95558 10.9105 8.78268 10.8901 8.53398 10.6849C8.28528 10.4797 7.43582 9.96204 6.58123 8.79767C5.91305 7.8911 5.56701 6.89758 5.46879 6.59843C5.37058 6.29927 5.55688 6.19759 5.73435 6.11087C5.89058 6.03145 6.09778 5.88772 6.28175 5.77675C6.46571 5.66578 6.53883 5.57276 6.67982 5.42429C6.81972 5.27987 6.8148 5.1183 6.77747 4.96972C6.75023 4.8195 6.53582 3.40649 6.41585 2.82866Z" fill="url(#paint0_linear_1338_16768)"/>
<path fill-rule="evenodd" clip-rule="evenodd" d="M6.41585 2.82866C6.3147 2.34249 6.09199 2.27418 5.89177 2.21189C5.72753 2.15923 5.53756 2.11268 5.34417 2.06088C5.15527 2.01029 4.82763 1.99183 4.49859 2.17654C4.16955 2.36126 3.26529 2.78602 2.92759 4.04682C2.58989 5.30762 3.28393 6.80146 3.38239 7.00973C3.48085 7.218 4.59587 10.3794 7.2173 12.1816C9.39955 13.6799 9.93523 13.6415 10.4678 13.7408C11.0003 13.8401 12.3199 13.5743 12.7185 13.04C13.117 12.5058 13.2545 11.9926 13.2106 11.8683C13.1668 11.7439 12.9953 11.6287 12.7421 11.4223C12.4934 11.2171 11.2558 10.2229 11.0176 10.0682C10.7795 9.91349 10.6025 9.81845 10.3399 10.0253C10.0828 10.2293 9.37931 10.6602 9.16745 10.7853C8.95558 10.9105 8.78268 10.8901 8.53398 10.6849C8.28528 10.4797 7.43582 9.96204 6.58123 8.79767C5.91305 7.8911 5.56701 6.89758 5.46879 6.59843C5.37058 6.29927 5.55688 6.19759 5.73435 6.11087C5.89058 6.03145 6.09778 5.88772 6.28175 5.77675C6.46571 5.66578 6.53883 5.57276 6.67982 5.42429C6.81972 5.27987 6.8148 5.1183 6.77747 4.96972C6.75023 4.8195 6.53582 3.40649 6.41585 2.82866Z" fill="#5287EE" fill-opacity="0.4"/>
<defs>
<linearGradient id="paint0_linear_1338_16768" x1="18.4515" y1="3.56946" x2="3.88377" y2="-0.124667" gradientUnits="userSpaceOnUse">
<stop stop-color="#1E3257"/>
<stop offset="1" stop-color="#2E4C85"/>
</linearGradient>
</defs>
</svg>
