<svg width="16" height="15" viewBox="0 0 16 15" fill="none" xmlns="http://www.w3.org/2000/svg">
<g clip-path="url(#clip0_1136_10695)">
<path d="M7.99968 0C3.8581 0 0.5 3.3581 0.5 7.49968C0.5 11.6413 3.8581 15 7.99968 15C12.1413 15 15.5 11.6413 15.5 7.49968C15.5 3.3581 12.1413 0 7.99968 0ZM9.56095 11.6235C9.17492 11.7759 8.86762 11.8914 8.63714 11.9714C8.4073 12.0514 8.14 12.0914 7.83587 12.0914C7.36857 12.0914 7.00476 11.9771 6.74571 11.7492C6.48667 11.5213 6.35778 11.2324 6.35778 10.8813C6.35778 10.7448 6.3673 10.6051 6.38635 10.4629C6.40603 10.3206 6.43714 10.1606 6.47968 9.98095L6.96286 8.27429C7.0054 8.11048 7.04222 7.95492 7.07143 7.81016C7.10064 7.66413 7.1146 7.53016 7.1146 7.40825C7.1146 7.19111 7.06952 7.03873 6.98 6.95302C6.88921 6.8673 6.71841 6.8254 6.46381 6.8254C6.33937 6.8254 6.21111 6.84381 6.07968 6.88254C5.94952 6.92254 5.83651 6.95873 5.74381 6.99429L5.87143 6.46857C6.18762 6.33968 6.49048 6.22921 6.77937 6.13778C7.06825 6.04508 7.34127 5.99937 7.59841 5.99937C8.06254 5.99937 8.42064 6.11238 8.6727 6.33587C8.92349 6.56 9.04984 6.85143 9.04984 7.20952C9.04984 7.28381 9.04095 7.4146 9.02381 7.60127C9.00667 7.78857 8.97429 7.95937 8.9273 8.11619L8.44667 9.81778C8.4073 9.95429 8.37238 10.1105 8.34064 10.2851C8.30952 10.4597 8.29429 10.593 8.29429 10.6825C8.29429 10.9086 8.34444 11.0629 8.44603 11.1448C8.54635 11.2267 8.72222 11.2679 8.97111 11.2679C9.08857 11.2679 9.22 11.247 9.36857 11.2063C9.51587 11.1657 9.62254 11.1295 9.68984 11.0984L9.56095 11.6235ZM9.47587 4.71683C9.25175 4.92508 8.9819 5.02921 8.66635 5.02921C8.35143 5.02921 8.07968 4.92508 7.85365 4.71683C7.62889 4.50857 7.51524 4.25524 7.51524 3.95937C7.51524 3.66413 7.62952 3.41016 7.85365 3.2C8.07968 2.98921 8.35143 2.88444 8.66635 2.88444C8.9819 2.88444 9.25238 2.98921 9.47587 3.2C9.7 3.41016 9.81238 3.66413 9.81238 3.95937C9.81238 4.25587 9.7 4.50857 9.47587 4.71683Z" fill="#B6B0A2"/>
</g>
<defs>
<clipPath id="clip0_1136_10695">
<rect width="15" height="15" fill="white" transform="translate(0.5)"/>
</clipPath>
</defs>
</svg>
