<svg width="63" height="36" viewBox="0 0 63 36" fill="none" xmlns="http://www.w3.org/2000/svg">
<path d="M2.75874 14.6417C2.75874 17.5269 2.75874 20.0045 2.60007 21.3217C2.47313 22.2312 2.31445 22.9211 1.67974 23.0466C1.39413 23.1093 1.0133 23.172 0.537273 23.172C0.15645 23.172 0.0295087 23.2661 0.0295087 23.4229C0.0295087 23.6425 0.251656 23.7366 0.664215 23.7366C1.93363 23.7366 3.93295 23.6425 4.66286 23.6425C5.48798 23.6425 7.4873 23.7366 9.58183 23.7366C9.93092 23.7366 10.1848 23.6425 10.1848 23.4229C10.1848 23.2661 10.0261 23.172 9.67704 23.172C9.20101 23.172 8.50283 23.1093 8.05854 23.0466C7.10648 22.9211 6.91607 22.2312 6.82086 21.3531C6.66218 20.0045 6.66218 17.5269 6.66218 14.6417V2.09697C6.66218 1.75199 6.75739 1.56382 6.91607 1.5011C7.20168 1.40701 7.67771 1.37565 8.15374 1.37565C8.88365 1.37565 10.1848 1.56382 11.3273 2.59876C13.1044 4.16684 13.1997 6.26808 13.1997 7.30301C13.1997 10.5019 10.7243 12.4777 8.94713 12.4777C8.28068 12.4777 8.05854 12.5718 8.05854 12.8227C8.05854 13.0422 8.28068 13.0736 8.43936 13.1049C8.59804 13.1363 8.94713 13.1363 9.1058 13.1363C13.6122 13.1363 16.9127 10.0001 16.9127 5.54676C16.9127 3.88459 16.0241 2.47331 15.3259 1.81472C14.8182 1.34429 13.3901 0.0270996 9.42315 0.0270996C7.96333 0.0270996 6.12268 0.121183 4.82154 0.121183C3.93295 0.121183 2.38015 0.0270996 0.698176 0.0270996C0.222147 0.0270996 0 0.0898223 0 0.309355C0 0.528886 0.190412 0.59161 0.5395 0.59161C1.02062 0.592846 1.07677 0.622972 1.33066 0.685694C2.37792 0.905227 2.6318 1.40701 2.69527 2.47331C2.75874 3.47689 2.75874 4.35501 2.75874 9.12199V14.6417Z" fill="url(#paint0_linear_1338_16797)"/>
<path d="M2.75874 14.6417C2.75874 17.5269 2.75874 20.0045 2.60007 21.3217C2.47313 22.2312 2.31445 22.9211 1.67974 23.0466C1.39413 23.1093 1.0133 23.172 0.537273 23.172C0.15645 23.172 0.0295087 23.2661 0.0295087 23.4229C0.0295087 23.6425 0.251656 23.7366 0.664215 23.7366C1.93363 23.7366 3.93295 23.6425 4.66286 23.6425C5.48798 23.6425 7.4873 23.7366 9.58183 23.7366C9.93092 23.7366 10.1848 23.6425 10.1848 23.4229C10.1848 23.2661 10.0261 23.172 9.67704 23.172C9.20101 23.172 8.50283 23.1093 8.05854 23.0466C7.10648 22.9211 6.91607 22.2312 6.82086 21.3531C6.66218 20.0045 6.66218 17.5269 6.66218 14.6417V2.09697C6.66218 1.75199 6.75739 1.56382 6.91607 1.5011C7.20168 1.40701 7.67771 1.37565 8.15374 1.37565C8.88365 1.37565 10.1848 1.56382 11.3273 2.59876C13.1044 4.16684 13.1997 6.26808 13.1997 7.30301C13.1997 10.5019 10.7243 12.4777 8.94713 12.4777C8.28068 12.4777 8.05854 12.5718 8.05854 12.8227C8.05854 13.0422 8.28068 13.0736 8.43936 13.1049C8.59804 13.1363 8.94713 13.1363 9.1058 13.1363C13.6122 13.1363 16.9127 10.0001 16.9127 5.54676C16.9127 3.88459 16.0241 2.47331 15.3259 1.81472C14.8182 1.34429 13.3901 0.0270996 9.42315 0.0270996C7.96333 0.0270996 6.12268 0.121183 4.82154 0.121183C3.93295 0.121183 2.38015 0.0270996 0.698176 0.0270996C0.222147 0.0270996 0 0.0898223 0 0.309355C0 0.528886 0.190412 0.59161 0.5395 0.59161C1.02062 0.592846 1.07677 0.622972 1.33066 0.685694C2.37792 0.905227 2.6318 1.40701 2.69527 2.47331C2.75874 3.47689 2.75874 4.35501 2.75874 9.12199V14.6417Z" fill="#5287EE" fill-opacity="0.4"/>
<path d="M56.3356 19.3928C56.3356 25.5397 56.3673 28.6759 53.9554 31.0907C53.3207 31.718 52.8447 32.063 52.4322 32.2825C51.8927 32.5647 51.734 32.6902 51.734 32.847C51.734 33.0038 51.8609 33.0979 51.9879 33.0979C52.1465 33.0979 52.4004 33.0352 52.6226 32.9097C53.289 32.5961 53.7968 32.3452 54.2093 32.0943C57.2559 30.244 58.9379 28.08 59.6043 26.167C60.239 24.4107 60.366 22.4035 60.366 20.6159C60.366 19.0478 60.2708 17.5425 60.2708 16.1939V9.12199C60.2708 4.35501 60.2708 3.47689 60.3342 2.47331C60.3977 1.37565 60.6516 0.842503 61.5084 0.685694C61.8893 0.622972 62.0797 0.59161 62.4288 0.59161C62.8096 0.59161 63 0.528886 63 0.309355C63 0.0898223 62.7779 0.0270996 62.3336 0.0270996C61.0959 0.0270996 59.0966 0.121183 58.3349 0.121183C57.5098 0.121183 55.5105 0.0270996 53.8285 0.0270996C53.3525 0.0270996 53.1303 0.0898223 53.1303 0.309355C53.1303 0.528886 53.3207 0.59161 53.6698 0.59161C54.1141 0.59161 54.6536 0.622972 54.9075 0.685694C55.9548 0.905227 56.2087 1.40701 56.2721 2.47331C56.3356 3.47689 56.3356 4.35501 56.3356 9.12199V19.3928Z" fill="url(#paint1_linear_1338_16797)"/>
<path d="M56.3356 19.3928C56.3356 25.5397 56.3673 28.6759 53.9554 31.0907C53.3207 31.718 52.8447 32.063 52.4322 32.2825C51.8927 32.5647 51.734 32.6902 51.734 32.847C51.734 33.0038 51.8609 33.0979 51.9879 33.0979C52.1465 33.0979 52.4004 33.0352 52.6226 32.9097C53.289 32.5961 53.7968 32.3452 54.2093 32.0943C57.2559 30.244 58.9379 28.08 59.6043 26.167C60.239 24.4107 60.366 22.4035 60.366 20.6159C60.366 19.0478 60.2708 17.5425 60.2708 16.1939V9.12199C60.2708 4.35501 60.2708 3.47689 60.3342 2.47331C60.3977 1.37565 60.6516 0.842503 61.5084 0.685694C61.8893 0.622972 62.0797 0.59161 62.4288 0.59161C62.8096 0.59161 63 0.528886 63 0.309355C63 0.0898223 62.7779 0.0270996 62.3336 0.0270996C61.0959 0.0270996 59.0966 0.121183 58.3349 0.121183C57.5098 0.121183 55.5105 0.0270996 53.8285 0.0270996C53.3525 0.0270996 53.1303 0.0898223 53.1303 0.309355C53.1303 0.528886 53.3207 0.59161 53.6698 0.59161C54.1141 0.59161 54.6536 0.622972 54.9075 0.685694C55.9548 0.905227 56.2087 1.40701 56.2721 2.47331C56.3356 3.47689 56.3356 4.35501 56.3356 9.12199V19.3928Z" fill="#5287EE" fill-opacity="0.4"/>
<path d="M21.0175 20.6887C20.8634 21.7262 20.6169 22.9162 19.754 23.0993C19.2918 23.1909 19.0761 23.1909 18.8296 23.1909C18.5214 23.1909 18.3365 23.2519 18.3365 23.4045C18.3365 23.6791 18.5831 23.7401 18.8912 23.7401C19.8773 23.7401 21.3564 23.6486 21.9419 23.6486C22.4966 23.6486 23.8833 23.7401 25.1775 23.7401C25.6397 23.7401 25.9171 23.6791 25.9171 23.4045C25.9171 23.2519 25.7014 23.1909 25.4549 23.1909C25.1467 23.1909 24.7153 23.1603 24.1606 23.0383C23.6368 22.9162 23.2362 22.6416 23.2362 22.0619C23.2362 21.5736 23.267 21.177 23.3286 20.6277L24.931 8.48328H25.0543C26.1328 10.7718 27.9817 14.6165 28.259 15.2573C28.6288 16.1117 31.0632 20.7803 31.8028 22.1839C32.2958 23.0993 32.604 23.7096 32.8813 23.7096C33.1587 23.7096 33.3127 23.435 34.0215 22.0008L40.7392 8.14763H40.8625L42.7114 21.5736C42.8347 22.428 42.7422 22.8247 42.5573 22.8857C42.3416 22.9773 42.2184 23.0688 42.2184 23.2214C42.2184 23.4045 42.4032 23.496 43.112 23.557C44.3446 23.6486 48.5971 23.7401 49.3675 23.7401C49.7989 23.7401 50.1687 23.6486 50.1687 23.4045C50.1687 23.2214 49.953 23.1909 49.6756 23.1909C49.2751 23.1909 48.6587 23.1604 47.7651 22.8857C46.8406 22.6111 46.5325 21.7262 46.2551 19.8038L43.451 0.946412C43.3585 0.305625 43.1736 0.000488281 42.8963 0.000488281C42.6189 0.000488281 42.4649 0.244598 42.2184 0.732816L33.8366 18.1561L25.424 0.946412C25.0234 0.153056 24.8386 0.000488281 24.592 0.000488281C24.3455 0.000488281 24.1606 0.275111 24.0682 0.793844L21.0175 20.6887Z" fill="url(#paint2_linear_1338_16797)"/>
<path d="M21.0175 20.6887C20.8634 21.7262 20.6169 22.9162 19.754 23.0993C19.2918 23.1909 19.0761 23.1909 18.8296 23.1909C18.5214 23.1909 18.3365 23.2519 18.3365 23.4045C18.3365 23.6791 18.5831 23.7401 18.8912 23.7401C19.8773 23.7401 21.3564 23.6486 21.9419 23.6486C22.4966 23.6486 23.8833 23.7401 25.1775 23.7401C25.6397 23.7401 25.9171 23.6791 25.9171 23.4045C25.9171 23.2519 25.7014 23.1909 25.4549 23.1909C25.1467 23.1909 24.7153 23.1603 24.1606 23.0383C23.6368 22.9162 23.2362 22.6416 23.2362 22.0619C23.2362 21.5736 23.267 21.177 23.3286 20.6277L24.931 8.48328H25.0543C26.1328 10.7718 27.9817 14.6165 28.259 15.2573C28.6288 16.1117 31.0632 20.7803 31.8028 22.1839C32.2958 23.0993 32.604 23.7096 32.8813 23.7096C33.1587 23.7096 33.3127 23.435 34.0215 22.0008L40.7392 8.14763H40.8625L42.7114 21.5736C42.8347 22.428 42.7422 22.8247 42.5573 22.8857C42.3416 22.9773 42.2184 23.0688 42.2184 23.2214C42.2184 23.4045 42.4032 23.496 43.112 23.557C44.3446 23.6486 48.5971 23.7401 49.3675 23.7401C49.7989 23.7401 50.1687 23.6486 50.1687 23.4045C50.1687 23.2214 49.953 23.1909 49.6756 23.1909C49.2751 23.1909 48.6587 23.1604 47.7651 22.8857C46.8406 22.6111 46.5325 21.7262 46.2551 19.8038L43.451 0.946412C43.3585 0.305625 43.1736 0.000488281 42.8963 0.000488281C42.6189 0.000488281 42.4649 0.244598 42.2184 0.732816L33.8366 18.1561L25.424 0.946412C25.0234 0.153056 24.8386 0.000488281 24.592 0.000488281C24.3455 0.000488281 24.1606 0.275111 24.0682 0.793844L21.0175 20.6887Z" fill="#5287EE" fill-opacity="0.4"/>
<path d="M2.57312 31.4181C2.57312 33.0572 2.58163 33.8935 1.93507 34.5374C1.76493 34.7047 1.63732 34.7967 1.52672 34.8552C1.3821 34.9305 1.33956 34.9639 1.33956 35.0058C1.33956 35.0476 1.37359 35.0727 1.40762 35.0727C1.45016 35.0727 1.51822 35.0559 1.57777 35.0225C1.75642 34.9389 1.89254 34.8719 2.00313 34.805C2.81983 34.3116 3.27071 33.7346 3.44937 33.2245C3.61951 32.7561 3.65354 32.2209 3.65354 31.7442C3.65354 31.3261 3.62802 30.9247 3.62802 30.5651V29.0179C3.62802 27.7468 3.62802 27.5126 3.64504 27.245C3.66205 26.9523 3.73011 26.8101 3.9598 26.7683C4.06189 26.7516 4.11294 26.7432 4.20652 26.7432C4.3086 26.7432 4.35965 26.7265 4.35965 26.6679C4.35965 26.6094 4.3001 26.5927 4.18099 26.5927C3.84921 26.5927 3.31325 26.6178 3.10908 26.6178C2.88789 26.6178 2.35193 26.5927 1.90104 26.5927C1.77343 26.5927 1.71388 26.6094 1.71388 26.6679C1.71388 26.7265 1.76493 26.7432 1.85851 26.7432C1.97761 26.7432 2.12223 26.7516 2.19029 26.7683C2.47103 26.8268 2.53909 26.9606 2.5561 27.245C2.57312 27.5126 2.57312 27.7468 2.57312 29.0179V31.4181Z" fill="url(#paint3_linear_1338_16797)"/>
<path d="M2.57312 31.4181C2.57312 33.0572 2.58163 33.8935 1.93507 34.5374C1.76493 34.7047 1.63732 34.7967 1.52672 34.8552C1.3821 34.9305 1.33956 34.9639 1.33956 35.0058C1.33956 35.0476 1.37359 35.0727 1.40762 35.0727C1.45016 35.0727 1.51822 35.0559 1.57777 35.0225C1.75642 34.9389 1.89254 34.8719 2.00313 34.805C2.81983 34.3116 3.27071 33.7346 3.44937 33.2245C3.61951 32.7561 3.65354 32.2209 3.65354 31.7442C3.65354 31.3261 3.62802 30.9247 3.62802 30.5651V29.0179C3.62802 27.7468 3.62802 27.5126 3.64504 27.245C3.66205 26.9523 3.73011 26.8101 3.9598 26.7683C4.06189 26.7516 4.11294 26.7432 4.20652 26.7432C4.3086 26.7432 4.35965 26.7265 4.35965 26.6679C4.35965 26.6094 4.3001 26.5927 4.18099 26.5927C3.84921 26.5927 3.31325 26.6178 3.10908 26.6178C2.88789 26.6178 2.35193 26.5927 1.90104 26.5927C1.77343 26.5927 1.71388 26.6094 1.71388 26.6679C1.71388 26.7265 1.76493 26.7432 1.85851 26.7432C1.97761 26.7432 2.12223 26.7516 2.19029 26.7683C2.47103 26.8268 2.53909 26.9606 2.5561 27.245C2.57312 27.5126 2.57312 27.7468 2.57312 29.0179V31.4181Z" fill="#5287EE" fill-opacity="0.4"/>
<path d="M8.85595 30.4898C8.85595 31.2592 8.85595 31.9198 8.81342 32.2711C8.77939 32.5136 8.73685 32.6976 8.56671 32.731C8.49014 32.7478 8.38805 32.7645 8.26044 32.7645C8.15836 32.7645 8.12433 32.7896 8.12433 32.8314C8.12433 32.8899 8.18388 32.915 8.29447 32.915C8.46462 32.915 8.68581 32.8983 8.88148 32.8983C9.08565 32.8899 9.27281 32.8899 9.36639 32.8899C9.62161 32.8899 9.88533 32.8983 10.2511 32.915C10.617 32.9234 11.0849 32.9401 11.7229 32.9401C12.0462 32.9401 12.1227 32.9401 12.1823 32.7227C12.2248 32.5554 12.2929 31.9867 12.2929 31.7944C12.2929 31.7108 12.2929 31.6439 12.2248 31.6439C12.1653 31.6439 12.1483 31.6773 12.1313 31.7693C12.0717 32.1122 11.9696 32.2878 11.7484 32.3882C11.5272 32.4885 11.1699 32.4885 10.9487 32.4885C10.081 32.4885 9.94489 32.3631 9.92787 31.786C9.91936 31.5435 9.92787 30.7741 9.92787 30.4898V29.8291C9.92787 29.7789 9.93638 29.7455 9.97892 29.7455C10.1831 29.7455 11.0253 29.7538 11.1869 29.7706C11.5017 29.804 11.6208 29.9295 11.6634 30.0967C11.6889 30.2054 11.6889 30.3142 11.6974 30.3978C11.6974 30.4396 11.7144 30.4731 11.774 30.4731C11.8505 30.4731 11.8505 30.3811 11.8505 30.3142C11.8505 30.2556 11.876 29.9211 11.8845 29.7538C11.9186 29.3273 11.9526 29.1935 11.9526 29.1434C11.9526 29.0932 11.9271 29.0765 11.8931 29.0765C11.8505 29.0765 11.8165 29.1183 11.7569 29.1852C11.6804 29.2688 11.5528 29.2939 11.3486 29.3106C11.1529 29.3273 10.1746 29.3273 9.98742 29.3273C9.93638 29.3273 9.92787 29.2939 9.92787 29.2353V27.1195C9.92787 27.061 9.94489 27.0359 9.98742 27.0359C10.1576 27.0359 11.0508 27.0526 11.1955 27.0694C11.6208 27.1195 11.7059 27.2199 11.7654 27.3704C11.808 27.4708 11.8165 27.6129 11.8165 27.6715C11.8165 27.7468 11.8335 27.7886 11.8931 27.7886C11.9526 27.7886 11.9696 27.7384 11.9781 27.6966C11.9951 27.5962 12.0122 27.2283 12.0207 27.1446C12.0462 26.7599 12.0887 26.6596 12.0887 26.601C12.0887 26.5592 12.0802 26.5258 12.0377 26.5258C11.9951 26.5258 11.9441 26.5509 11.9016 26.5592C11.8335 26.5759 11.6974 26.5927 11.5357 26.6094C11.3741 26.6178 9.68116 26.6178 9.40893 26.6178C9.28983 26.6178 9.09416 26.6094 8.87297 26.601C8.66029 26.601 8.41358 26.5927 8.18388 26.5927C8.05627 26.5927 7.99672 26.6094 7.99672 26.6679C7.99672 26.7265 8.04776 26.7432 8.14134 26.7432C8.26044 26.7432 8.40507 26.7516 8.47313 26.7683C8.75387 26.8268 8.82193 26.9606 8.83894 27.245C8.85596 27.5126 8.85595 27.7468 8.85595 29.0179V30.4898Z" fill="url(#paint4_linear_1338_16797)"/>
<path d="M8.85595 30.4898C8.85595 31.2592 8.85595 31.9198 8.81342 32.2711C8.77939 32.5136 8.73685 32.6976 8.56671 32.731C8.49014 32.7478 8.38805 32.7645 8.26044 32.7645C8.15836 32.7645 8.12433 32.7896 8.12433 32.8314C8.12433 32.8899 8.18388 32.915 8.29447 32.915C8.46462 32.915 8.68581 32.8983 8.88148 32.8983C9.08565 32.8899 9.27281 32.8899 9.36639 32.8899C9.62161 32.8899 9.88533 32.8983 10.2511 32.915C10.617 32.9234 11.0849 32.9401 11.7229 32.9401C12.0462 32.9401 12.1227 32.9401 12.1823 32.7227C12.2248 32.5554 12.2929 31.9867 12.2929 31.7944C12.2929 31.7108 12.2929 31.6439 12.2248 31.6439C12.1653 31.6439 12.1483 31.6773 12.1313 31.7693C12.0717 32.1122 11.9696 32.2878 11.7484 32.3882C11.5272 32.4885 11.1699 32.4885 10.9487 32.4885C10.081 32.4885 9.94489 32.3631 9.92787 31.786C9.91936 31.5435 9.92787 30.7741 9.92787 30.4898V29.8291C9.92787 29.7789 9.93638 29.7455 9.97892 29.7455C10.1831 29.7455 11.0253 29.7538 11.1869 29.7706C11.5017 29.804 11.6208 29.9295 11.6634 30.0967C11.6889 30.2054 11.6889 30.3142 11.6974 30.3978C11.6974 30.4396 11.7144 30.4731 11.774 30.4731C11.8505 30.4731 11.8505 30.3811 11.8505 30.3142C11.8505 30.2556 11.876 29.9211 11.8845 29.7538C11.9186 29.3273 11.9526 29.1935 11.9526 29.1434C11.9526 29.0932 11.9271 29.0765 11.8931 29.0765C11.8505 29.0765 11.8165 29.1183 11.7569 29.1852C11.6804 29.2688 11.5528 29.2939 11.3486 29.3106C11.1529 29.3273 10.1746 29.3273 9.98742 29.3273C9.93638 29.3273 9.92787 29.2939 9.92787 29.2353V27.1195C9.92787 27.061 9.94489 27.0359 9.98742 27.0359C10.1576 27.0359 11.0508 27.0526 11.1955 27.0694C11.6208 27.1195 11.7059 27.2199 11.7654 27.3704C11.808 27.4708 11.8165 27.6129 11.8165 27.6715C11.8165 27.7468 11.8335 27.7886 11.8931 27.7886C11.9526 27.7886 11.9696 27.7384 11.9781 27.6966C11.9951 27.5962 12.0122 27.2283 12.0207 27.1446C12.0462 26.7599 12.0887 26.6596 12.0887 26.601C12.0887 26.5592 12.0802 26.5258 12.0377 26.5258C11.9951 26.5258 11.9441 26.5509 11.9016 26.5592C11.8335 26.5759 11.6974 26.5927 11.5357 26.6094C11.3741 26.6178 9.68116 26.6178 9.40893 26.6178C9.28983 26.6178 9.09416 26.6094 8.87297 26.601C8.66029 26.601 8.41358 26.5927 8.18388 26.5927C8.05627 26.5927 7.99672 26.6094 7.99672 26.6679C7.99672 26.7265 8.04776 26.7432 8.14134 26.7432C8.26044 26.7432 8.40507 26.7516 8.47313 26.7683C8.75387 26.8268 8.82193 26.9606 8.83894 27.245C8.85596 27.5126 8.85595 27.7468 8.85595 29.0179V30.4898Z" fill="#5287EE" fill-opacity="0.4"/>
<path d="M18.0212 32.7227C18.0978 32.9401 18.1318 33.0321 18.2169 33.0321C18.319 33.0321 18.3615 32.9318 18.5232 32.5889C18.889 31.8195 20.0204 28.859 20.1821 28.4325H20.1991L21.9686 32.6223C22.0962 32.9318 22.1473 33.0321 22.2323 33.0321C22.3429 33.0321 22.3855 32.9318 22.479 32.639C22.8959 31.3846 23.7892 28.7252 24.1805 27.6715C24.3592 27.1948 24.4527 26.8603 24.6569 26.785C24.7505 26.7516 24.8696 26.7432 24.9547 26.7432C25.0312 26.7432 25.0738 26.7181 25.0738 26.6596C25.0738 26.6094 25.0142 26.5927 24.9206 26.5927C24.6399 26.5927 24.2741 26.6178 24.2145 26.6178C24.138 26.6178 23.7807 26.5927 23.3298 26.5927C23.2022 26.5927 23.1341 26.6094 23.1341 26.6679C23.1341 26.7181 23.1937 26.7432 23.2787 26.7432C23.6105 26.7432 23.6871 26.8603 23.6871 26.9941C23.6871 27.1112 23.6616 27.2868 23.602 27.4791C23.3043 28.4576 22.6237 30.6654 22.4705 31.2257H22.445L20.6755 27.0192C20.5649 26.7516 20.5224 26.6261 20.4288 26.6261C20.3607 26.6261 20.3012 26.693 20.2161 26.9272L18.5657 31.2843H18.5402C18.387 30.8159 17.5959 28.282 17.4512 27.73C17.3492 27.3537 17.2641 27.0694 17.2641 26.9606C17.2641 26.8686 17.2811 26.8101 17.3577 26.7767C17.4172 26.7432 17.5023 26.7432 17.5703 26.7432C17.6554 26.7432 17.7235 26.7348 17.7235 26.6679C17.7235 26.6178 17.6639 26.5927 17.5448 26.5927C17.0514 26.5927 16.6771 26.6178 16.6005 26.6178C16.524 26.6178 16.056 26.5927 15.6137 26.5927C15.4946 26.5927 15.4265 26.6094 15.4265 26.6679C15.4265 26.7348 15.4776 26.7432 15.5626 26.7432C15.6392 26.7432 15.8093 26.7599 15.9029 26.8185C16.022 26.9021 16.1156 27.1028 16.2177 27.4122L18.0212 32.7227Z" fill="url(#paint5_linear_1338_16797)"/>
<path d="M18.0212 32.7227C18.0978 32.9401 18.1318 33.0321 18.2169 33.0321C18.319 33.0321 18.3615 32.9318 18.5232 32.5889C18.889 31.8195 20.0204 28.859 20.1821 28.4325H20.1991L21.9686 32.6223C22.0962 32.9318 22.1473 33.0321 22.2323 33.0321C22.3429 33.0321 22.3855 32.9318 22.479 32.639C22.8959 31.3846 23.7892 28.7252 24.1805 27.6715C24.3592 27.1948 24.4527 26.8603 24.6569 26.785C24.7505 26.7516 24.8696 26.7432 24.9547 26.7432C25.0312 26.7432 25.0738 26.7181 25.0738 26.6596C25.0738 26.6094 25.0142 26.5927 24.9206 26.5927C24.6399 26.5927 24.2741 26.6178 24.2145 26.6178C24.138 26.6178 23.7807 26.5927 23.3298 26.5927C23.2022 26.5927 23.1341 26.6094 23.1341 26.6679C23.1341 26.7181 23.1937 26.7432 23.2787 26.7432C23.6105 26.7432 23.6871 26.8603 23.6871 26.9941C23.6871 27.1112 23.6616 27.2868 23.602 27.4791C23.3043 28.4576 22.6237 30.6654 22.4705 31.2257H22.445L20.6755 27.0192C20.5649 26.7516 20.5224 26.6261 20.4288 26.6261C20.3607 26.6261 20.3012 26.693 20.2161 26.9272L18.5657 31.2843H18.5402C18.387 30.8159 17.5959 28.282 17.4512 27.73C17.3492 27.3537 17.2641 27.0694 17.2641 26.9606C17.2641 26.8686 17.2811 26.8101 17.3577 26.7767C17.4172 26.7432 17.5023 26.7432 17.5703 26.7432C17.6554 26.7432 17.7235 26.7348 17.7235 26.6679C17.7235 26.6178 17.6639 26.5927 17.5448 26.5927C17.0514 26.5927 16.6771 26.6178 16.6005 26.6178C16.524 26.6178 16.056 26.5927 15.6137 26.5927C15.4946 26.5927 15.4265 26.6094 15.4265 26.6679C15.4265 26.7348 15.4776 26.7432 15.5626 26.7432C15.6392 26.7432 15.8093 26.7599 15.9029 26.8185C16.022 26.9021 16.1156 27.1028 16.2177 27.4122L18.0212 32.7227Z" fill="#5287EE" fill-opacity="0.4"/>
<path d="M29.3244 30.4898C29.3244 31.2592 29.3244 31.9198 29.2819 32.2711C29.2479 32.5136 29.2053 32.6976 29.0352 32.731C28.9586 32.7478 28.8565 32.7645 28.7289 32.7645C28.6268 32.7645 28.5928 32.7896 28.5928 32.8314C28.5928 32.8899 28.6523 32.915 28.7629 32.915C28.9331 32.915 29.1543 32.8983 29.3499 32.8983C29.5541 32.8899 29.7413 32.8899 29.8349 32.8899C30.0901 32.8899 30.3538 32.8983 30.7196 32.915C31.0854 32.9234 31.5533 32.9401 32.1914 32.9401C32.5147 32.9401 32.5912 32.9401 32.6508 32.7227C32.6933 32.5554 32.7614 31.9867 32.7614 31.7944C32.7614 31.7108 32.7614 31.6439 32.6933 31.6439C32.6338 31.6439 32.6167 31.6773 32.5997 31.7693C32.5402 32.1122 32.4381 32.2878 32.2169 32.3882C31.9957 32.4885 31.6384 32.4885 31.4172 32.4885C30.5495 32.4885 30.4134 32.3631 30.3963 31.786C30.3878 31.5435 30.3963 30.7741 30.3963 30.4898V29.8291C30.3963 29.7789 30.4048 29.7455 30.4474 29.7455C30.6516 29.7455 31.4938 29.7538 31.6554 29.7706C31.9702 29.804 32.0893 29.9295 32.1318 30.0967C32.1573 30.2054 32.1573 30.3142 32.1659 30.3978C32.1659 30.4396 32.1829 30.4731 32.2424 30.4731C32.319 30.4731 32.319 30.3811 32.319 30.3142C32.319 30.2556 32.3445 29.9211 32.353 29.7538C32.387 29.3273 32.4211 29.1935 32.4211 29.1434C32.4211 29.0932 32.3955 29.0765 32.3615 29.0765C32.319 29.0765 32.285 29.1183 32.2254 29.1852C32.1488 29.2688 32.0212 29.2939 31.8171 29.3106C31.6214 29.3273 30.643 29.3273 30.4559 29.3273C30.4048 29.3273 30.3963 29.2939 30.3963 29.2353V27.1195C30.3963 27.061 30.4134 27.0359 30.4559 27.0359C30.626 27.0359 31.5193 27.0526 31.6639 27.0694C32.0893 27.1195 32.1744 27.2199 32.2339 27.3704C32.2764 27.4708 32.285 27.6129 32.285 27.6715C32.285 27.7468 32.302 27.7886 32.3615 27.7886C32.4211 27.7886 32.4381 27.7384 32.4466 27.6966C32.4636 27.5962 32.4806 27.2283 32.4891 27.1446C32.5147 26.7599 32.5572 26.6596 32.5572 26.601C32.5572 26.5592 32.5487 26.5258 32.5061 26.5258C32.4636 26.5258 32.4126 26.5509 32.37 26.5592C32.302 26.5759 32.1659 26.5927 32.0042 26.6094C31.8426 26.6178 30.1496 26.6178 29.8774 26.6178C29.7583 26.6178 29.5626 26.6094 29.3414 26.601C29.1288 26.601 28.882 26.5927 28.6523 26.5927C28.5247 26.5927 28.4652 26.6094 28.4652 26.6679C28.4652 26.7265 28.5162 26.7432 28.6098 26.7432C28.7289 26.7432 28.8735 26.7516 28.9416 26.7683C29.2223 26.8268 29.2904 26.9606 29.3074 27.245C29.3244 27.5126 29.3244 27.7468 29.3244 29.0179V30.4898Z" fill="url(#paint6_linear_1338_16797)"/>
<path d="M29.3244 30.4898C29.3244 31.2592 29.3244 31.9198 29.2819 32.2711C29.2479 32.5136 29.2053 32.6976 29.0352 32.731C28.9586 32.7478 28.8565 32.7645 28.7289 32.7645C28.6268 32.7645 28.5928 32.7896 28.5928 32.8314C28.5928 32.8899 28.6523 32.915 28.7629 32.915C28.9331 32.915 29.1543 32.8983 29.3499 32.8983C29.5541 32.8899 29.7413 32.8899 29.8349 32.8899C30.0901 32.8899 30.3538 32.8983 30.7196 32.915C31.0854 32.9234 31.5533 32.9401 32.1914 32.9401C32.5147 32.9401 32.5912 32.9401 32.6508 32.7227C32.6933 32.5554 32.7614 31.9867 32.7614 31.7944C32.7614 31.7108 32.7614 31.6439 32.6933 31.6439C32.6338 31.6439 32.6167 31.6773 32.5997 31.7693C32.5402 32.1122 32.4381 32.2878 32.2169 32.3882C31.9957 32.4885 31.6384 32.4885 31.4172 32.4885C30.5495 32.4885 30.4134 32.3631 30.3963 31.786C30.3878 31.5435 30.3963 30.7741 30.3963 30.4898V29.8291C30.3963 29.7789 30.4048 29.7455 30.4474 29.7455C30.6516 29.7455 31.4938 29.7538 31.6554 29.7706C31.9702 29.804 32.0893 29.9295 32.1318 30.0967C32.1573 30.2054 32.1573 30.3142 32.1659 30.3978C32.1659 30.4396 32.1829 30.4731 32.2424 30.4731C32.319 30.4731 32.319 30.3811 32.319 30.3142C32.319 30.2556 32.3445 29.9211 32.353 29.7538C32.387 29.3273 32.4211 29.1935 32.4211 29.1434C32.4211 29.0932 32.3955 29.0765 32.3615 29.0765C32.319 29.0765 32.285 29.1183 32.2254 29.1852C32.1488 29.2688 32.0212 29.2939 31.8171 29.3106C31.6214 29.3273 30.643 29.3273 30.4559 29.3273C30.4048 29.3273 30.3963 29.2939 30.3963 29.2353V27.1195C30.3963 27.061 30.4134 27.0359 30.4559 27.0359C30.626 27.0359 31.5193 27.0526 31.6639 27.0694C32.0893 27.1195 32.1744 27.2199 32.2339 27.3704C32.2764 27.4708 32.285 27.6129 32.285 27.6715C32.285 27.7468 32.302 27.7886 32.3615 27.7886C32.4211 27.7886 32.4381 27.7384 32.4466 27.6966C32.4636 27.5962 32.4806 27.2283 32.4891 27.1446C32.5147 26.7599 32.5572 26.6596 32.5572 26.601C32.5572 26.5592 32.5487 26.5258 32.5061 26.5258C32.4636 26.5258 32.4126 26.5509 32.37 26.5592C32.302 26.5759 32.1659 26.5927 32.0042 26.6094C31.8426 26.6178 30.1496 26.6178 29.8774 26.6178C29.7583 26.6178 29.5626 26.6094 29.3414 26.601C29.1288 26.601 28.882 26.5927 28.6523 26.5927C28.5247 26.5927 28.4652 26.6094 28.4652 26.6679C28.4652 26.7265 28.5162 26.7432 28.6098 26.7432C28.7289 26.7432 28.8735 26.7516 28.9416 26.7683C29.2223 26.8268 29.2904 26.9606 29.3074 27.245C29.3244 27.5126 29.3244 27.7468 29.3244 29.0179V30.4898Z" fill="#5287EE" fill-opacity="0.4"/>
<path d="M39.2746 29.0179C39.2746 27.7468 39.2746 27.5126 39.2916 27.245C39.3086 26.9523 39.3767 26.8101 39.6064 26.7683C39.7085 26.7516 39.8446 26.7432 39.9382 26.7432C40.0402 26.7432 40.0913 26.7265 40.0913 26.6679C40.0913 26.6094 40.0317 26.5927 39.9126 26.5927C39.5809 26.5927 38.9598 26.6178 38.7556 26.6178C38.526 26.6178 37.99 26.5927 37.5902 26.5927C37.4625 26.5927 37.403 26.6094 37.403 26.6679C37.403 26.7265 37.454 26.7432 37.5476 26.7432C37.6582 26.7432 37.7603 26.7516 37.8284 26.7683C38.1091 26.8268 38.1772 26.9606 38.1942 27.245C38.2112 27.5126 38.2112 27.7468 38.2112 29.0179V30.4898C38.2112 31.2592 38.2112 31.9198 38.1686 32.2711C38.1346 32.5136 38.0921 32.6976 37.9219 32.731C37.8454 32.7478 37.7433 32.7645 37.6157 32.7645C37.5136 32.7645 37.4796 32.7896 37.4796 32.8314C37.4796 32.8899 37.5391 32.915 37.6497 32.915C37.8199 32.915 38.041 32.8983 38.2367 32.8983C38.4409 32.8899 38.628 32.8899 38.7216 32.8899C39.0704 32.8899 39.3767 32.8983 39.7595 32.915C40.1423 32.9234 40.5847 32.9401 41.1972 32.9401C41.6396 32.9401 41.6822 32.8983 41.7332 32.7143C41.8013 32.4718 41.8608 31.8446 41.8608 31.7526C41.8608 31.6522 41.8523 31.6104 41.7927 31.6104C41.7247 31.6104 41.7077 31.6606 41.6992 31.7359C41.6821 31.8948 41.5801 32.1289 41.478 32.2376C41.2653 32.4634 40.9335 32.4718 40.4826 32.4718C39.8191 32.4718 39.5979 32.4132 39.4532 32.2878C39.2746 32.1373 39.2746 31.5602 39.2746 30.4898V29.0179Z" fill="url(#paint7_linear_1338_16797)"/>
<path d="M39.2746 29.0179C39.2746 27.7468 39.2746 27.5126 39.2916 27.245C39.3086 26.9523 39.3767 26.8101 39.6064 26.7683C39.7085 26.7516 39.8446 26.7432 39.9382 26.7432C40.0402 26.7432 40.0913 26.7265 40.0913 26.6679C40.0913 26.6094 40.0317 26.5927 39.9126 26.5927C39.5809 26.5927 38.9598 26.6178 38.7556 26.6178C38.526 26.6178 37.99 26.5927 37.5902 26.5927C37.4625 26.5927 37.403 26.6094 37.403 26.6679C37.403 26.7265 37.454 26.7432 37.5476 26.7432C37.6582 26.7432 37.7603 26.7516 37.8284 26.7683C38.1091 26.8268 38.1772 26.9606 38.1942 27.245C38.2112 27.5126 38.2112 27.7468 38.2112 29.0179V30.4898C38.2112 31.2592 38.2112 31.9198 38.1686 32.2711C38.1346 32.5136 38.0921 32.6976 37.9219 32.731C37.8454 32.7478 37.7433 32.7645 37.6157 32.7645C37.5136 32.7645 37.4796 32.7896 37.4796 32.8314C37.4796 32.8899 37.5391 32.915 37.6497 32.915C37.8199 32.915 38.041 32.8983 38.2367 32.8983C38.4409 32.8899 38.628 32.8899 38.7216 32.8899C39.0704 32.8899 39.3767 32.8983 39.7595 32.915C40.1423 32.9234 40.5847 32.9401 41.1972 32.9401C41.6396 32.9401 41.6822 32.8983 41.7332 32.7143C41.8013 32.4718 41.8608 31.8446 41.8608 31.7526C41.8608 31.6522 41.8523 31.6104 41.7927 31.6104C41.7247 31.6104 41.7077 31.6606 41.6992 31.7359C41.6821 31.8948 41.5801 32.1289 41.478 32.2376C41.2653 32.4634 40.9335 32.4718 40.4826 32.4718C39.8191 32.4718 39.5979 32.4132 39.4532 32.2878C39.2746 32.1373 39.2746 31.5602 39.2746 30.4898V29.0179Z" fill="#5287EE" fill-opacity="0.4"/>
<path d="M46.6453 33.0321C47.0962 33.0321 47.5726 32.9568 47.998 32.6892C48.6105 32.2962 48.7976 31.7191 48.7976 31.2341C48.7976 30.4396 48.4318 29.8626 47.4024 29.1015L47.1642 28.9259C46.4581 28.3991 46.2625 28.1064 46.2625 27.7217C46.2625 27.2199 46.6453 26.8603 47.2748 26.8603C47.8278 26.8603 48.0745 27.1112 48.2021 27.2701C48.3808 27.4875 48.4233 27.7468 48.4233 27.822C48.4233 27.9224 48.4488 27.9726 48.5084 27.9726C48.5765 27.9726 48.602 27.9056 48.602 27.7217C48.602 27.0694 48.636 26.8268 48.636 26.7181C48.636 26.6596 48.5935 26.6345 48.5169 26.6178C48.2957 26.5592 47.9384 26.4756 47.3854 26.4756C46.2029 26.4756 45.4203 27.1363 45.4203 28.0562C45.4203 28.7336 45.7435 29.319 46.6793 30.0382L47.0707 30.3393C47.7768 30.8828 47.9044 31.2675 47.9044 31.6773C47.9044 32.1206 47.5301 32.6307 46.7644 32.6307C46.2369 32.6307 45.735 32.4049 45.5479 31.786C45.5053 31.6439 45.4713 31.4682 45.4713 31.3595C45.4713 31.2926 45.4628 31.2174 45.3862 31.2174C45.3182 31.2174 45.2926 31.3093 45.2841 31.4348C45.2756 31.5686 45.2416 32.0704 45.2416 32.5303C45.2416 32.7143 45.2671 32.7561 45.4032 32.8147C45.7691 32.9736 46.1519 33.0321 46.6453 33.0321Z" fill="url(#paint8_linear_1338_16797)"/>
<path d="M46.6453 33.0321C47.0962 33.0321 47.5726 32.9568 47.998 32.6892C48.6105 32.2962 48.7976 31.7191 48.7976 31.2341C48.7976 30.4396 48.4318 29.8626 47.4024 29.1015L47.1642 28.9259C46.4581 28.3991 46.2625 28.1064 46.2625 27.7217C46.2625 27.2199 46.6453 26.8603 47.2748 26.8603C47.8278 26.8603 48.0745 27.1112 48.2021 27.2701C48.3808 27.4875 48.4233 27.7468 48.4233 27.822C48.4233 27.9224 48.4488 27.9726 48.5084 27.9726C48.5765 27.9726 48.602 27.9056 48.602 27.7217C48.602 27.0694 48.636 26.8268 48.636 26.7181C48.636 26.6596 48.5935 26.6345 48.5169 26.6178C48.2957 26.5592 47.9384 26.4756 47.3854 26.4756C46.2029 26.4756 45.4203 27.1363 45.4203 28.0562C45.4203 28.7336 45.7435 29.319 46.6793 30.0382L47.0707 30.3393C47.7768 30.8828 47.9044 31.2675 47.9044 31.6773C47.9044 32.1206 47.5301 32.6307 46.7644 32.6307C46.2369 32.6307 45.735 32.4049 45.5479 31.786C45.5053 31.6439 45.4713 31.4682 45.4713 31.3595C45.4713 31.2926 45.4628 31.2174 45.3862 31.2174C45.3182 31.2174 45.2926 31.3093 45.2841 31.4348C45.2756 31.5686 45.2416 32.0704 45.2416 32.5303C45.2416 32.7143 45.2671 32.7561 45.4032 32.8147C45.7691 32.9736 46.1519 33.0321 46.6453 33.0321Z" fill="#5287EE" fill-opacity="0.4"/>
<defs>
<linearGradient id="paint0_linear_1338_16797" x1="78.0769" y1="-6.7787" x2="-0.799689" y2="-5.20195" gradientUnits="userSpaceOnUse">
<stop stop-color="#1E3257"/>
<stop offset="1" stop-color="#2E4C85"/>
</linearGradient>
<linearGradient id="paint1_linear_1338_16797" x1="78.0769" y1="-6.7787" x2="-0.799689" y2="-5.20195" gradientUnits="userSpaceOnUse">
<stop stop-color="#1E3257"/>
<stop offset="1" stop-color="#2E4C85"/>
</linearGradient>
<linearGradient id="paint2_linear_1338_16797" x1="78.0769" y1="-6.7787" x2="-0.799689" y2="-5.20195" gradientUnits="userSpaceOnUse">
<stop stop-color="#1E3257"/>
<stop offset="1" stop-color="#2E4C85"/>
</linearGradient>
<linearGradient id="paint3_linear_1338_16797" x1="78.0769" y1="-6.7787" x2="-0.799689" y2="-5.20195" gradientUnits="userSpaceOnUse">
<stop stop-color="#1E3257"/>
<stop offset="1" stop-color="#2E4C85"/>
</linearGradient>
<linearGradient id="paint4_linear_1338_16797" x1="78.0769" y1="-6.7787" x2="-0.799689" y2="-5.20195" gradientUnits="userSpaceOnUse">
<stop stop-color="#1E3257"/>
<stop offset="1" stop-color="#2E4C85"/>
</linearGradient>
<linearGradient id="paint5_linear_1338_16797" x1="78.0769" y1="-6.7787" x2="-0.799689" y2="-5.20195" gradientUnits="userSpaceOnUse">
<stop stop-color="#1E3257"/>
<stop offset="1" stop-color="#2E4C85"/>
</linearGradient>
<linearGradient id="paint6_linear_1338_16797" x1="78.0769" y1="-6.7787" x2="-0.799689" y2="-5.20195" gradientUnits="userSpaceOnUse">
<stop stop-color="#1E3257"/>
<stop offset="1" stop-color="#2E4C85"/>
</linearGradient>
<linearGradient id="paint7_linear_1338_16797" x1="78.0769" y1="-6.7787" x2="-0.799689" y2="-5.20195" gradientUnits="userSpaceOnUse">
<stop stop-color="#1E3257"/>
<stop offset="1" stop-color="#2E4C85"/>
</linearGradient>
<linearGradient id="paint8_linear_1338_16797" x1="78.0769" y1="-6.7787" x2="-0.799689" y2="-5.20195" gradientUnits="userSpaceOnUse">
<stop stop-color="#1E3257"/>
<stop offset="1" stop-color="#2E4C85"/>
</linearGradient>
</defs>
</svg>
