<svg width="124" height="106" viewBox="0 0 124 106" fill="none" xmlns="http://www.w3.org/2000/svg">
<path d="M5.42942 51.7958C5.42942 57.4759 5.42942 62.3533 5.1171 64.9464C4.86725 66.7369 4.55494 68.0951 3.30567 68.3421C2.74351 68.4656 1.99395 68.589 1.057 68.589C0.307445 68.589 0.0575924 68.7743 0.0575924 69.083C0.0575924 69.5151 0.494834 69.7004 1.30685 69.7004C3.80538 69.7004 7.74055 69.5151 9.17721 69.5151C10.8012 69.5151 14.7364 69.7004 18.859 69.7004C19.5461 69.7004 20.0458 69.5151 20.0458 69.083C20.0458 68.7743 19.7335 68.589 19.0464 68.589C18.1094 68.589 16.7352 68.4656 15.8608 68.3421C13.9869 68.0951 13.6121 66.7369 13.4247 65.0081C13.1124 62.3533 13.1124 57.4759 13.1124 51.7958V27.0999C13.1124 26.4207 13.2998 26.0503 13.6121 25.9268C14.1743 25.7416 15.1112 25.6799 16.0481 25.6799C17.4848 25.6799 20.0458 26.0503 22.2945 28.0877C25.7924 31.1747 25.9798 35.3113 25.9798 37.3487C25.9798 43.6461 21.1077 47.5358 17.6097 47.5358C16.298 47.5358 15.8608 47.721 15.8608 48.2149C15.8608 48.6471 16.298 48.7088 16.6103 48.7706C16.9226 48.8323 17.6097 48.8323 17.922 48.8323C26.7918 48.8323 33.288 42.6583 33.288 33.8913C33.288 30.619 31.539 27.8408 30.1648 26.5442C29.1654 25.6181 26.3546 23.025 18.5467 23.025C15.6734 23.025 12.0505 23.2103 9.48952 23.2103C7.74055 23.2103 4.68425 23.025 1.3737 23.025C0.436753 23.025 -0.000488281 23.1485 -0.000488281 23.5807C-0.000488281 24.0129 0.374291 24.1364 1.06138 24.1364C2.00835 24.1388 2.11888 24.1981 2.61858 24.3216C4.67986 24.7538 5.17957 25.7416 5.30449 27.8408C5.42942 29.8164 5.42942 31.5451 5.42942 40.9296V51.7958Z" fill="#F3F1EE"/>
<path d="M110.882 61.1491C110.882 73.2502 110.945 79.4241 106.198 84.1781C104.948 85.4129 104.011 86.092 103.199 86.5242C102.137 87.0799 101.825 87.3268 101.825 87.6355C101.825 87.9442 102.075 88.1294 102.325 88.1294C102.637 88.1294 103.137 88.006 103.574 87.759C104.886 87.1416 105.885 86.6477 106.697 86.1538C112.694 82.5111 116.004 78.2511 117.316 74.485C118.565 71.0275 118.815 67.0762 118.815 63.557C118.815 60.47 118.628 57.5065 118.628 54.8517V40.9296C118.628 31.5451 118.628 29.8164 118.753 27.8408C118.878 25.6799 119.377 24.6303 121.064 24.3216C121.813 24.1981 122.188 24.1364 122.875 24.1364C123.625 24.1364 124 24.0129 124 23.5807C124 23.1485 123.562 23.025 122.688 23.025C120.252 23.025 116.317 23.2103 114.817 23.2103C113.193 23.2103 109.258 23.025 105.948 23.025C105.011 23.025 104.573 23.1485 104.573 23.5807C104.573 24.0129 104.948 24.1364 105.635 24.1364C106.51 24.1364 107.572 24.1981 108.071 24.3216C110.133 24.7538 110.632 25.7416 110.757 27.8408C110.882 29.8164 110.882 31.5451 110.882 40.9296V61.1491Z" fill="#F3F1EE"/>
<path d="M41.3672 63.7003C41.0639 65.7427 40.5787 68.0855 38.8805 68.4459C37.9707 68.6261 37.5461 68.6261 37.0609 68.6261C36.4544 68.6261 36.0905 68.7462 36.0905 69.0466C36.0905 69.5872 36.5757 69.7074 37.1822 69.7074C39.1231 69.7074 42.0344 69.5272 43.1868 69.5272C44.2785 69.5272 47.0079 69.7074 49.5553 69.7074C50.465 69.7074 51.0109 69.5872 51.0109 69.0466C51.0109 68.7462 50.5863 68.6261 50.1011 68.6261C49.4946 68.6261 48.6455 68.566 47.5537 68.3258C46.5226 68.0855 45.7342 67.5448 45.7342 66.4035C45.7342 65.4424 45.7948 64.6615 45.9161 63.5802L49.07 39.6722H49.3126C51.4355 44.1775 55.0746 51.7463 55.6205 53.0078C56.3483 54.6898 61.1398 63.8806 62.5955 66.6438C63.5659 68.4459 64.1724 69.6473 64.7183 69.6473C65.2642 69.6473 65.5674 69.1067 66.9624 66.2834L80.1846 39.0114H80.4273L84.0664 65.4424C84.309 67.1243 84.127 67.9053 83.7631 68.0254C83.3386 68.2056 83.096 68.3858 83.096 68.6862C83.096 69.0466 83.4599 69.2268 84.8549 69.347C87.281 69.5272 95.651 69.7074 97.1673 69.7074C98.0164 69.7074 98.7442 69.5272 98.7442 69.0466C98.7442 68.6862 98.3197 68.6261 97.7738 68.6261C96.9853 68.6261 95.7723 68.566 94.0134 68.0254C92.1938 67.4848 91.5873 65.7427 91.0414 61.9583L85.522 24.8348C85.3401 23.5734 84.9762 22.9727 84.4303 22.9727C83.8844 22.9727 83.5812 23.4532 83.096 24.4143L66.5985 58.7145L50.0405 24.8348C49.252 23.273 48.8881 22.9727 48.4029 22.9727C47.9176 22.9727 47.5537 23.5133 47.3718 24.5345L41.3672 63.7003Z" fill="#F3F1EE"/>
<path d="M5.06406 84.8225C5.06406 88.0493 5.08081 89.6957 3.80822 90.9634C3.47334 91.2927 3.22217 91.4738 3.00449 91.589C2.71983 91.7372 2.63611 91.803 2.63611 91.8853C2.63611 91.9677 2.70309 92.0171 2.77007 92.0171C2.85379 92.0171 2.98775 91.9841 3.10496 91.9183C3.45659 91.7536 3.7245 91.6219 3.94218 91.4902C5.54965 90.5189 6.43711 89.3829 6.78874 88.3786C7.12363 87.4567 7.19061 86.403 7.19061 85.4646C7.19061 84.6414 7.14038 83.8511 7.14038 83.1432V80.0975C7.14038 77.595 7.14038 77.134 7.17387 76.6072C7.20736 76.031 7.34131 75.7511 7.79341 75.6688C7.99435 75.6358 8.09481 75.6194 8.279 75.6194C8.47994 75.6194 8.5804 75.5865 8.5804 75.4712C8.5804 75.356 8.46319 75.323 8.22877 75.323C7.57573 75.323 6.52083 75.3724 6.11896 75.3724C5.68361 75.3724 4.6287 75.323 3.74125 75.323C3.49008 75.323 3.37287 75.356 3.37287 75.4712C3.37287 75.5865 3.47334 75.6194 3.65752 75.6194C3.89195 75.6194 4.1766 75.6358 4.31056 75.6688C4.86313 75.784 4.99708 76.0474 5.03057 76.6072C5.06406 77.134 5.06406 77.595 5.06406 80.0975V84.8225Z" fill="#F3F1EE"/>
<path d="M17.4303 82.995C17.4303 84.5097 17.4303 85.8103 17.3466 86.5018C17.2796 86.9792 17.1959 87.3414 16.861 87.4073C16.7103 87.4402 16.5093 87.4731 16.2582 87.4731C16.0572 87.4731 15.9903 87.5225 15.9903 87.6048C15.9903 87.7201 16.1075 87.7695 16.3251 87.7695C16.66 87.7695 17.0954 87.7365 17.4805 87.7365C17.8824 87.7201 18.2508 87.7201 18.4349 87.7201C18.9373 87.7201 19.4564 87.7365 20.1764 87.7695C20.8964 87.7859 21.8173 87.8189 23.0732 87.8189C23.7095 87.8189 23.8602 87.8189 23.9774 87.3908C24.0611 87.0615 24.195 85.942 24.195 85.5634C24.195 85.3987 24.195 85.267 24.0611 85.267C23.9439 85.267 23.9104 85.3329 23.8769 85.514C23.7597 86.189 23.5588 86.5347 23.1234 86.7323C22.688 86.9298 21.9848 86.9298 21.5494 86.9298C19.8415 86.9298 19.5736 86.6829 19.5401 85.5469C19.5233 85.0694 19.5401 83.5548 19.5401 82.995V81.6944C19.5401 81.5956 19.5568 81.5298 19.6406 81.5298C20.0424 81.5298 21.7001 81.5462 22.0183 81.5792C22.6378 81.645 22.8722 81.892 22.956 82.2213C23.0062 82.4353 23.0062 82.6493 23.0229 82.8139C23.0229 82.8963 23.0564 82.9621 23.1736 82.9621C23.3243 82.9621 23.3243 82.781 23.3243 82.6493C23.3243 82.5341 23.3746 81.8755 23.3913 81.5462C23.4583 80.7066 23.5253 80.4432 23.5253 80.3444C23.5253 80.2456 23.475 80.2127 23.4081 80.2127C23.3243 80.2127 23.2574 80.295 23.1401 80.4267C22.9894 80.5914 22.7383 80.6408 22.3364 80.6737C21.9513 80.7066 20.0257 80.7066 19.6573 80.7066C19.5568 80.7066 19.5401 80.6408 19.5401 80.5255V76.3602C19.5401 76.245 19.5736 76.1956 19.6573 76.1956C19.9922 76.1956 21.7504 76.2285 22.035 76.2615C22.8722 76.3602 23.0397 76.5578 23.1569 76.8541C23.2406 77.0517 23.2574 77.3316 23.2574 77.4468C23.2574 77.595 23.2908 77.6773 23.4081 77.6773C23.5253 77.6773 23.5588 77.5785 23.5755 77.4962C23.609 77.2987 23.6425 76.5743 23.6592 76.4096C23.7095 75.6523 23.7932 75.4547 23.7932 75.3395C23.7932 75.2572 23.7764 75.1913 23.6927 75.1913C23.609 75.1913 23.5085 75.2407 23.4248 75.2572C23.2908 75.2901 23.0229 75.323 22.7048 75.356C22.3866 75.3724 19.0545 75.3724 18.5187 75.3724C18.2842 75.3724 17.8991 75.356 17.4638 75.3395C17.0452 75.3395 16.5596 75.323 16.1075 75.323C15.8563 75.323 15.7391 75.356 15.7391 75.4712C15.7391 75.5865 15.8396 75.6194 16.0237 75.6194C16.2582 75.6194 16.5428 75.6358 16.6768 75.6688C17.2293 75.784 17.3633 76.0474 17.3968 76.6072C17.4303 77.134 17.4303 77.595 17.4303 80.0975V82.995Z" fill="#F3F1EE"/>
<path d="M35.4699 87.3908C35.6206 87.8189 35.6875 88 35.855 88C36.0559 88 36.1396 87.8024 36.4578 87.1274C37.1778 85.6127 39.4048 79.7846 39.723 78.945H39.7565L43.2393 87.1932C43.4905 87.8024 43.5909 88 43.7584 88C43.9761 88 44.0598 87.8024 44.244 87.2262C45.0645 84.7566 46.8226 79.5212 47.5929 77.4468C47.9445 76.5084 48.1287 75.8499 48.5306 75.7017C48.7148 75.6358 48.9492 75.6194 49.1166 75.6194C49.2673 75.6194 49.351 75.57 49.351 75.4547C49.351 75.356 49.2338 75.323 49.0496 75.323C48.4971 75.323 47.7771 75.3724 47.6599 75.3724C47.5092 75.3724 46.8059 75.323 45.9184 75.323C45.6673 75.323 45.5333 75.356 45.5333 75.4712C45.5333 75.57 45.6505 75.6194 45.818 75.6194C46.471 75.6194 46.6217 75.8499 46.6217 76.1133C46.6217 76.3438 46.5715 76.6895 46.4543 77.0682C45.8682 78.9944 44.5286 83.3408 44.2272 84.4438H44.177L40.6941 76.1627C40.4765 75.6358 40.3927 75.3889 40.2086 75.3889C40.0746 75.3889 39.9574 75.5206 39.7899 75.9816L36.5415 84.5591H36.4913C36.1899 83.6371 34.6326 78.6487 34.348 77.5621C34.1471 76.8212 33.9796 76.2615 33.9796 76.0474C33.9796 75.8663 34.0131 75.7511 34.1638 75.6852C34.281 75.6194 34.4485 75.6194 34.5824 75.6194C34.7499 75.6194 34.8838 75.6029 34.8838 75.4712C34.8838 75.3724 34.7666 75.323 34.5322 75.323C33.561 75.323 32.8242 75.3724 32.6735 75.3724C32.5228 75.3724 31.6019 75.323 30.7312 75.323C30.4968 75.323 30.3628 75.356 30.3628 75.4712C30.3628 75.6029 30.4633 75.6194 30.6307 75.6194C30.7814 75.6194 31.1163 75.6523 31.3005 75.7676C31.5349 75.9322 31.7191 76.3273 31.92 76.9365L35.4699 87.3908Z" fill="#F3F1EE"/>
<path d="M57.7174 82.995C57.7174 84.5097 57.7174 85.8103 57.6337 86.5018C57.5667 86.9792 57.483 87.3414 57.1481 87.4073C56.9974 87.4402 56.7965 87.4731 56.5453 87.4731C56.3444 87.4731 56.2774 87.5225 56.2774 87.6048C56.2774 87.7201 56.3946 87.7695 56.6123 87.7695C56.9472 87.7695 57.3825 87.7365 57.7677 87.7365C58.1695 87.7201 58.5379 87.7201 58.7221 87.7201C59.2244 87.7201 59.7435 87.7365 60.4635 87.7695C61.1835 87.7859 62.1045 87.8189 63.3603 87.8189C63.9966 87.8189 64.1473 87.8189 64.2645 87.3908C64.3482 87.0615 64.4822 85.942 64.4822 85.5634C64.4822 85.3987 64.4822 85.267 64.3482 85.267C64.231 85.267 64.1975 85.3329 64.164 85.514C64.0468 86.189 63.8459 86.5347 63.4105 86.7323C62.9752 86.9298 62.2719 86.9298 61.8366 86.9298C60.1286 86.9298 59.8607 86.6829 59.8272 85.5469C59.8105 85.0694 59.8272 83.5548 59.8272 82.995V81.6944C59.8272 81.5956 59.844 81.5298 59.9277 81.5298C60.3296 81.5298 61.9873 81.5462 62.3054 81.5792C62.9249 81.645 63.1594 81.892 63.2431 82.2213C63.2933 82.4353 63.2933 82.6493 63.3101 82.8139C63.3101 82.8963 63.3436 82.9621 63.4608 82.9621C63.6115 82.9621 63.6115 82.781 63.6115 82.6493C63.6115 82.5341 63.6617 81.8755 63.6785 81.5462C63.7454 80.7066 63.8124 80.4432 63.8124 80.3444C63.8124 80.2456 63.7622 80.2127 63.6952 80.2127C63.6115 80.2127 63.5445 80.295 63.4273 80.4267C63.2766 80.5914 63.0254 80.6408 62.6236 80.6737C62.2384 80.7066 60.3128 80.7066 59.9444 80.7066C59.844 80.7066 59.8272 80.6408 59.8272 80.5255V76.3602C59.8272 76.245 59.8607 76.1956 59.9444 76.1956C60.2793 76.1956 62.0375 76.2285 62.3221 76.2615C63.1594 76.3602 63.3268 76.5578 63.444 76.8541C63.5278 77.0517 63.5445 77.3316 63.5445 77.4468C63.5445 77.595 63.578 77.6773 63.6952 77.6773C63.8124 77.6773 63.8459 77.5785 63.8626 77.4962C63.8961 77.2987 63.9296 76.5743 63.9464 76.4096C63.9966 75.6523 64.0803 75.4547 64.0803 75.3395C64.0803 75.2572 64.0636 75.1913 63.9799 75.1913C63.8961 75.1913 63.7957 75.2407 63.7119 75.2572C63.578 75.2901 63.3101 75.323 62.9919 75.356C62.6738 75.3724 59.3416 75.3724 58.8058 75.3724C58.5714 75.3724 58.1863 75.356 57.7509 75.3395C57.3323 75.3395 56.8467 75.323 56.3946 75.323C56.1434 75.323 56.0262 75.356 56.0262 75.4712C56.0262 75.5865 56.1267 75.6194 56.3109 75.6194C56.5453 75.6194 56.83 75.6358 56.9639 75.6688C57.5165 75.784 57.6504 76.0474 57.6839 76.6072C57.7174 77.134 57.7174 77.595 57.7174 80.0975V82.995Z" fill="#F3F1EE"/>
<path d="M77.3019 80.0975C77.3019 77.595 77.3019 77.134 77.3354 76.6072C77.3689 76.031 77.5028 75.7511 77.9549 75.6688C78.1558 75.6358 78.4238 75.6194 78.6079 75.6194C78.8089 75.6194 78.9093 75.5865 78.9093 75.4712C78.9093 75.356 78.7921 75.323 78.5577 75.323C77.9047 75.323 76.6823 75.3724 76.2805 75.3724C75.8284 75.3724 74.7735 75.323 73.9865 75.323C73.7353 75.323 73.6181 75.356 73.6181 75.4712C73.6181 75.5865 73.7186 75.6194 73.9027 75.6194C74.1204 75.6194 74.3214 75.6358 74.4553 75.6688C75.0079 75.784 75.1418 76.0474 75.1753 76.6072C75.2088 77.134 75.2088 77.595 75.2088 80.0975V82.995C75.2088 84.5097 75.2088 85.8103 75.1251 86.5018C75.0581 86.9792 74.9744 87.3414 74.6395 87.4073C74.4888 87.4402 74.2879 87.4731 74.0367 87.4731C73.8358 87.4731 73.7688 87.5225 73.7688 87.6048C73.7688 87.7201 73.886 87.7695 74.1037 87.7695C74.4386 87.7695 74.8739 87.7365 75.2591 87.7365C75.6609 87.7201 76.0293 87.7201 76.2135 87.7201C76.9 87.7201 77.5028 87.7365 78.2563 87.7695C79.0098 87.7859 79.8805 87.8189 81.0861 87.8189C81.9568 87.8189 82.0406 87.7365 82.141 87.3743C82.275 86.8969 82.3922 85.6621 82.3922 85.481C82.3922 85.2835 82.3755 85.2012 82.2582 85.2012C82.1243 85.2012 82.0908 85.2999 82.0741 85.4481C82.0406 85.7609 81.8396 86.2219 81.6387 86.4359C81.2201 86.8804 80.5671 86.8969 79.6796 86.8969C78.3735 86.8969 77.9382 86.7817 77.6535 86.5347C77.3019 86.2384 77.3019 85.1024 77.3019 82.995V80.0975Z" fill="#F3F1EE"/>
<path d="M91.8093 88C92.6968 88 93.6345 87.8518 94.4717 87.325C95.6773 86.5512 96.0457 85.4152 96.0457 84.4603C96.0457 82.8963 95.3256 81.7603 93.2996 80.2621L92.8307 79.9164C91.4409 78.8792 91.0558 78.3029 91.0558 77.5456C91.0558 76.5578 91.8093 75.8499 93.0484 75.8499C94.1368 75.8499 94.6224 76.3438 94.8736 76.6566C95.2252 77.0846 95.3089 77.595 95.3089 77.7432C95.3089 77.9407 95.3591 78.0395 95.4763 78.0395C95.6103 78.0395 95.6605 77.9078 95.6605 77.5456C95.6605 76.2615 95.7275 75.784 95.7275 75.57C95.7275 75.4547 95.6438 75.4053 95.4931 75.3724C95.0577 75.2572 94.3545 75.0925 93.2661 75.0925C90.9386 75.0925 89.3981 76.3932 89.3981 78.2042C89.3981 79.5377 90.0344 80.6901 91.8763 82.106L92.6465 82.6987C94.0363 83.7688 94.2875 84.5261 94.2875 85.3329C94.2875 86.2054 93.5507 87.2097 92.0437 87.2097C91.0056 87.2097 90.0176 86.7652 89.6493 85.5469C89.5656 85.267 89.4986 84.9213 89.4986 84.7072C89.4986 84.5755 89.4818 84.4274 89.3311 84.4274C89.1972 84.4274 89.1469 84.6085 89.1302 84.8554C89.1134 85.1188 89.0465 86.1066 89.0465 87.0121C89.0465 87.3743 89.0967 87.4567 89.3646 87.5719C90.0846 87.8847 90.8381 88 91.8093 88Z" fill="#F3F1EE"/>
<path fill-rule="evenodd" clip-rule="evenodd" d="M20.3598 101.358L4.87842 101.358L4.87842 100.825L20.3598 100.825V101.358Z" fill="#F3F1EE"/>
<path d="M32.2086 97.7298L31.4468 98.3922C31.1377 97.8954 30.5857 97.6746 30.0227 97.6746C29.2057 97.6746 28.3557 98.061 28.3557 98.9883C28.3557 99.7059 28.7531 100.026 30.0006 100.424C31.215 100.81 32.3411 101.207 32.3411 102.742C32.3411 104.298 31.0052 105.027 29.5921 105.027C28.6869 105.027 27.7154 104.729 27.1855 103.945L27.9803 103.294C28.3115 103.868 28.9739 104.166 29.6473 104.166C30.4422 104.166 31.3475 103.702 31.3475 102.808C31.3475 101.848 30.6961 101.682 29.3051 101.218C28.2011 100.854 27.3621 100.368 27.3621 99.0656C27.3621 97.5642 28.6538 96.8135 30.0227 96.8135C30.8948 96.8135 31.6345 97.0564 32.2086 97.7298Z" fill="#F3F1EE"/>
<path d="M34.9759 104.828V97.0122H35.9032V104.828H34.9759Z" fill="#F3F1EE"/>
<path d="M38.9476 104.828V97.0122H40.1179L44.6442 103.504H44.6663V97.0122H45.5936V104.828H44.4234L39.8971 98.337H39.875V104.828H38.9476Z" fill="#F3F1EE"/>
<path d="M54.9258 98.0389L54.1199 98.624C53.6562 97.9947 52.9166 97.6746 52.1659 97.6746C50.4216 97.6746 49.1851 99.2091 49.1851 100.92C49.1851 102.731 50.4105 104.166 52.1659 104.166C53.1153 104.166 53.877 103.78 54.429 103.073L55.1245 103.658C54.429 104.597 53.4134 105.027 52.1659 105.027C49.9248 105.027 48.1915 103.294 48.1915 100.92C48.1915 98.624 49.8475 96.8135 52.1659 96.8135C53.2257 96.8135 54.2634 97.1778 54.9258 98.0389Z" fill="#F3F1EE"/>
<path d="M57.5213 104.828V97.0122H62.434V97.8733H58.4486V100.324H62.1691V101.185H58.4486V103.967H62.6327V104.828H57.5213Z" fill="#F3F1EE"/>
<path d="M72.3488 97.0122V104.828H71.4215V98.2045H71.3994L69.9973 99.3858L69.4454 98.7123L71.5429 97.0122H72.3488Z" fill="#F3F1EE"/>
<path d="M77.4014 104.828L79.4989 101.572L79.4769 101.55C79.1898 101.715 78.7482 101.781 78.4281 101.781C77.0702 101.781 76.0656 100.788 76.0656 99.3306C76.0656 97.8071 77.2027 96.8797 78.682 96.8797C80.1613 96.8797 81.2984 97.8071 81.2984 99.3306C81.2984 100.236 80.9783 100.854 80.5588 101.527L78.4833 104.828H77.4014ZM78.682 100.987C79.6204 100.987 80.3711 100.346 80.3711 99.3306C80.3711 98.3149 79.6204 97.6746 78.682 97.6746C77.7436 97.6746 76.9929 98.3149 76.9929 99.3306C76.9929 100.346 77.7436 100.987 78.682 100.987Z" fill="#F3F1EE"/>
<path d="M87.201 97.0122L85.1035 100.269L85.1256 100.291C85.4126 100.125 85.8542 100.059 86.1743 100.059C87.5322 100.059 88.5369 101.053 88.5369 102.51C88.5369 104.034 87.3998 104.961 85.9204 104.961C84.4411 104.961 83.304 104.034 83.304 102.51C83.304 101.605 83.6241 100.987 84.0436 100.313L86.1191 97.0122H87.201ZM85.9204 100.854C84.982 100.854 84.2313 101.494 84.2313 102.51C84.2313 103.526 84.982 104.166 85.9204 104.166C86.8588 104.166 87.6095 103.526 87.6095 102.51C87.6095 101.494 86.8588 100.854 85.9204 100.854Z" fill="#F3F1EE"/>
<path d="M94.7155 97.0122V102.179H95.8415V103.04H94.7155V104.828H93.7881V103.04H90.4762V102.013L93.5784 97.0122H94.7155ZM93.7881 102.179V98.0941H93.766L91.271 102.179H93.7881Z" fill="#F3F1EE"/>
<path fill-rule="evenodd" clip-rule="evenodd" d="M119.12 101.358L103.639 101.358V100.825L119.12 100.825V101.358Z" fill="#F3F1EE"/>
<path d="M117.175 11.3582C115.747 12.0057 115.65 11.3197 115.547 10.949C115.316 10.1043 115.665 8.7732 115.926 8.09298C116.579 6.38323 116.334 5.1315 116.334 5.1315C116.223 4.5283 115.582 4.0283 114.828 4.02035C113.859 4.01247 113.427 4.81063 113.427 4.81063L111.5 5.26756L113.431 5.35709C113.431 5.35709 113.69 5.83557 114.309 5.97272C115.181 6.16551 115.366 5.64285 115.452 5.98186C115.536 6.32079 115.447 6.97273 115.293 7.34126C114.947 8.17229 114.596 8.33332 113.891 8.9966C112.635 10.1712 112.426 11.6473 112.426 11.6473C111.908 11.6202 110.874 10.8412 110.874 10.8412C110.874 10.8412 107.49 8.37183 108.403 4.68135C109.322 0.992062 112.857 0 112.857 0C110.424 0.438729 108.711 1.6462 107.461 3C107.185 4.30719 107.042 5.71316 107.68 7.6712C107.013 6.5396 106.666 5.47842 106.51 4.24822C106.51 4.24822 106.161 4.76532 105.74 5.72559C104.84 7.79133 107.105 10.0215 107.105 10.0215C106.142 9.75053 105.453 9.15076 105.071 8.2607C104.953 9.09859 104.986 10.2993 105.134 11.0283C105.141 11.0782 105.364 11.6825 106.04 12.1428C106.803 12.661 107.632 12.6065 107.632 12.6065C106.426 12.8968 105.517 12.4206 105.472 12.4206C106.377 15.2812 109.448 19 114.488 19C120.214 19 122.966 14.3946 123.527 12.4206C123.527 12.4206 122.579 12.8979 121.373 12.6088C121.373 12.6088 122.204 12.6621 122.962 12.144C123.638 11.6837 123.862 11.0793 123.872 11.0294C124.062 10.1473 124.001 8.79929 123.933 8.2607C123.554 9.15076 122.857 9.75053 121.901 10.0215C121.901 10.0215 124.159 7.79133 123.259 5.72559C122.841 4.76532 122.49 4.24822 122.49 4.24822C122.332 5.47842 121.989 6.5396 121.324 7.6712C121.957 5.71316 121.814 4.30719 121.539 3C120.692 2.04529 118.931 0.49885 116.125 0C118.125 0.662122 120.03 2.22219 120.58 4.68135C121.348 8.14169 118.852 10.5952 117.175 11.3582Z" fill="#F3F1EE"/>
<path d="M114.996 2.45136L114.995 2.44915C114.932 2.31309 114.732 2.31648 114.675 2.45363C114.663 2.48084 114.659 2.51379 114.664 2.54435L114.829 3.60333L115.01 2.54775C115.017 2.51599 115.011 2.48084 114.996 2.45136Z" fill="#F3F1EE"/>
<path d="M115.676 2.58652L115.676 2.58405C115.671 2.43492 115.484 2.36468 115.378 2.47058C115.356 2.49146 115.34 2.52067 115.333 2.55067L115.072 3.59134L115.651 2.68089C115.67 2.65406 115.679 2.61938 115.676 2.58652Z" fill="#F3F1EE"/>
<path d="M113.994 2.58652L113.994 2.58405C113.999 2.43492 114.186 2.36468 114.292 2.47058C114.314 2.49146 114.33 2.52067 114.337 2.55067L114.598 3.59134L114.019 2.68089C114 2.65406 113.991 2.61938 113.994 2.58652Z" fill="#F3F1EE"/>
</svg>
