<svg width="30" height="30" viewBox="0 0 30 30" fill="none" xmlns="http://www.w3.org/2000/svg">
<g clip-path="url(#clip0_314_11586)">
<path d="M0.635881 14.8204C0.635183 17.341 1.29379 19.8021 2.54611 21.9714L0.516113 29.3833L8.10123 27.3944C10.1992 28.5365 12.5498 29.135 14.9384 29.1351H14.9447C22.8302 29.1351 29.2491 22.7185 29.2525 14.8316C29.254 11.0099 27.767 7.41618 25.0654 4.71246C22.3643 2.00897 18.7718 0.519322 14.9441 0.517578C7.05774 0.517578 0.639253 6.93386 0.635997 14.8204" fill="#182846"/>
<path d="M0.124907 14.8158C0.124093 17.4271 0.806302 19.9763 2.10328 22.2233L0.000488281 29.9008L7.85758 27.8407C10.0225 29.021 12.4599 29.6434 14.9401 29.6443H14.9465C23.1149 29.6443 29.7644 22.9969 29.7679 14.8277C29.7693 10.8686 28.2289 7.1457 25.4307 4.34512C22.6322 1.54488 18.9113 0.00162791 14.9465 0C6.77677 0 0.128163 6.64651 0.124907 14.8158ZM4.80398 21.8363L4.5106 21.3706C3.27735 19.4097 2.62642 17.1436 2.62735 14.8167C2.63002 8.02663 8.15607 2.50233 14.9512 2.50233C18.2419 2.50372 21.3344 3.78651 23.6605 6.11395C25.9864 8.44163 27.2663 11.5358 27.2655 14.8267C27.2625 21.6169 21.7363 27.1419 14.9465 27.1419H14.9417C12.7308 27.1407 10.5626 26.547 8.67165 25.425L8.22165 25.1581L3.55909 26.3806L4.80398 21.8362V21.8363Z" fill="#F3F0E7"/>
<path d="M11.2423 8.62189C10.9648 8.00526 10.6729 7.99282 10.409 7.982C10.193 7.9727 9.94599 7.9734 9.69925 7.9734C9.45227 7.9734 9.05099 8.06631 8.71181 8.43666C8.37227 8.80735 7.41553 9.70317 7.41553 11.5251C7.41553 13.3472 8.74262 15.1081 8.92762 15.3554C9.11285 15.6022 11.4896 19.4608 15.2538 20.9453C18.3822 22.1789 19.0188 21.9335 19.6977 21.8717C20.3768 21.81 21.8889 20.9761 22.1974 20.1113C22.5061 19.2467 22.5061 18.5055 22.4136 18.3506C22.321 18.1963 22.074 18.1036 21.7037 17.9185C21.3332 17.7333 19.5125 16.8374 19.1731 16.7138C18.8335 16.5903 18.5867 16.5286 18.3397 16.8994C18.0927 17.2697 17.3835 18.1036 17.1674 18.3506C16.9515 18.5982 16.7353 18.629 16.3651 18.4437C15.9945 18.2579 14.8018 17.8674 13.3868 16.6058C12.2859 15.6242 11.5426 14.412 11.3266 14.0412C11.1105 13.671 11.3034 13.4703 11.4891 13.2857C11.6555 13.1198 11.8596 12.8533 12.0449 12.6371C12.2296 12.4208 12.2912 12.2665 12.4147 12.0196C12.5383 11.7724 12.4765 11.5561 12.384 11.3708C12.2912 11.1856 11.5716 9.3541 11.2423 8.62189Z" fill="#F3F0E7"/>
</g>
<defs>
<clipPath id="clip0_314_11586">
<rect width="29.7674" height="30" fill="white"/>
</clipPath>
</defs>
</svg>
