<svg width="9" height="12" viewBox="0 0 9 12" fill="none" xmlns="http://www.w3.org/2000/svg">
<path opacity="0.8" d="M6.10323 3.18359H8.01699V4.28359H6.10239L6.06958 4.44337C5.90506 5.24459 5.4693 5.96459 4.83578 6.48202C4.20227 6.99943 3.40972 7.28253 2.59173 7.28359H1.29465L5.79465 11.7836H4.23934L0.166992 7.71125V6.18359L2.59261 6.18359C3.09764 6.18204 3.58978 6.02414 4.00151 5.73166C4.41318 5.43916 4.72421 5.02635 4.89189 4.55L4.98568 4.28359H0.166992V3.18359H4.98681L4.89164 2.91647C4.5542 1.96936 3.65731 1.28359 2.59199 1.28359H0.166992V0.183594H8.01699V1.28359H5.16516L5.41424 1.60589C5.73691 2.0234 5.96103 2.50847 6.06979 3.02482L6.10323 3.18359Z" fill="#162641"/>
</svg>
