<svg width="18" height="19" viewBox="0 0 18 19" fill="none" xmlns="http://www.w3.org/2000/svg">
<path fill-rule="evenodd" clip-rule="evenodd" d="M13.0991 12.2872C13.5784 12.0342 14.112 11.9018 14.6539 11.9013C15.3155 11.9012 15.9624 12.0975 16.5127 12.4654C17.0629 12.8334 17.4919 13.3565 17.7452 13.9685C17.9985 14.5806 18.0649 15.2542 17.9358 15.904C17.8067 16.5539 17.488 17.1507 17.0201 17.6192C16.5521 18.0876 15.956 18.4066 15.307 18.5358C14.6581 18.665 13.9854 18.5986 13.3741 18.345C12.7628 18.0915 12.2403 17.6621 11.8727 17.1112C11.5055 16.5608 11.3094 15.9139 11.3091 15.252C11.3124 15.0635 11.3314 14.8755 11.3658 14.6901L11.4011 14.5L5.74328 11.9427L5.62321 12.0544C5.1455 12.4985 4.54864 12.7932 3.90597 12.9024C3.26329 13.0115 2.60275 12.9304 2.00549 12.6689C1.40823 12.4074 0.900225 11.9769 0.543931 11.4303C0.187635 10.8837 -0.00142453 10.2448 8.08182e-06 9.59206C0.00144068 8.93932 0.193303 8.30124 0.551995 7.7562C0.910684 7.21117 1.42057 6.78294 2.01897 6.52407C2.61738 6.26521 3.27827 6.18697 3.92046 6.29897C4.56265 6.41096 5.15821 6.70831 5.63397 7.15453L5.75442 7.26752L11.3992 4.69963L11.3633 4.50955C11.3283 4.32417 11.3092 4.13615 11.306 3.94752C11.3052 3.14828 11.5904 2.37518 12.1098 1.76828C12.6296 1.16093 13.3496 0.760258 14.1391 0.638858C14.9286 0.51746 15.7355 0.683363 16.4133 1.10651C17.0912 1.52967 17.5952 2.18207 17.8337 2.94543C18.0723 3.70879 18.0297 4.53248 17.7137 5.26707C17.3976 6.00166 16.829 6.59845 16.1111 6.94924C15.3933 7.30003 14.5736 7.38162 13.8008 7.17923C13.028 6.97684 12.3532 6.50386 11.8989 5.846L11.7816 5.67626L6.37489 8.13611L6.46503 8.35581C6.79369 9.15679 6.79241 10.0554 6.46145 10.8555L6.3702 11.0761L11.7857 13.524L11.9025 13.3536C12.209 12.9062 12.6197 12.5402 13.0991 12.2872ZM15.9315 2.03568C15.5532 1.78285 15.1086 1.64798 14.6537 1.64815C14.0442 1.64884 13.4597 1.89161 13.0288 2.3231C12.5979 2.75458 12.3558 3.3397 12.3553 3.94967C12.3553 4.40485 12.4901 4.84982 12.7428 5.22831C12.9954 5.60681 13.3546 5.90184 13.7748 6.07605C14.195 6.25025 14.6574 6.29579 15.1035 6.2069C15.5496 6.118 15.9593 5.89867 16.2808 5.57669C16.6023 5.25472 16.8212 4.84455 16.9098 4.3981C16.9984 3.95164 16.9527 3.48891 16.7786 3.06841C16.6045 2.64791 16.3097 2.2885 15.9315 2.03568ZM2.08823 11.5138C2.46647 11.7666 2.91113 11.9015 3.36598 11.9013C3.97544 11.9004 4.55988 11.6576 4.99068 11.2262C5.42146 10.7947 5.66371 10.2097 5.66439 9.59981C5.66439 9.14463 5.52955 8.69966 5.2769 8.32116C5.02425 7.94267 4.66512 7.64764 4.2449 7.47343C3.82468 7.29923 3.36227 7.25369 2.91618 7.34258C2.47009 7.43148 2.06039 7.65081 1.73888 7.97279C1.41738 8.29476 1.19851 8.70493 1.10991 9.15138C1.02131 9.59784 1.06695 10.0606 1.24107 10.4811C1.4152 10.9016 1.71 11.261 2.08823 11.5138ZM16.2793 16.8768C16.7103 16.4453 16.9526 15.8603 16.9531 15.2501C16.9531 14.795 16.8183 14.3499 16.5657 13.9714C16.313 13.5929 15.954 13.2979 15.5338 13.1237C15.1136 12.9494 14.6513 12.9038 14.2052 12.9927C13.7591 13.0815 13.3494 13.3007 13.0279 13.6226C12.7063 13.9445 12.4874 14.3546 12.3987 14.801C12.31 15.2474 12.3555 15.7101 12.5295 16.1306C12.7035 16.5511 12.9982 16.9106 13.3763 17.1635C13.7544 17.4164 14.1992 17.5515 14.654 17.5515C15.2637 17.551 15.8482 17.3083 16.2793 16.8768Z" fill="#5773A6"/>
</svg>
