<svg width="29" height="28" viewBox="0 0 29 28" fill="none" xmlns="http://www.w3.org/2000/svg">
<path d="M14.2872 1.51685C14.3542 1.3107 14.6458 1.31071 14.7128 1.51685L17.4779 10.0268C17.6619 10.5932 18.1896 10.9766 18.7851 10.9766H27.733C27.9498 10.9766 28.0399 11.254 27.8645 11.3814L20.6255 16.6408C20.1438 16.9908 19.9422 17.6112 20.1262 18.1775L22.8912 26.6875C22.9582 26.8937 22.7223 27.0651 22.5469 26.9377L15.3079 21.6782C14.8262 21.3282 14.1738 21.3282 13.6921 21.6782L6.45307 26.9377C6.27771 27.0651 6.04177 26.8937 6.10875 26.6875L8.87381 18.1775C9.05782 17.6112 8.85624 16.9908 8.3745 16.6408L1.13548 11.3814C0.960117 11.254 1.05024 10.9766 1.26699 10.9766H10.2149C10.8104 10.9766 11.3381 10.5932 11.5221 10.0268L14.2872 1.51685Z" stroke="#B6B0A2" stroke-width="1.15073"/>
</svg>
