<svg width="20" height="20" viewBox="0 0 20 20" fill="none" xmlns="http://www.w3.org/2000/svg">
<rect width="19.8359" height="19.8359" rx="9.91797" fill="#E3E0D9"/>
<path d="M12.2453 8.55243L7.59375 5.87005" stroke="#181713" stroke-width="0.8" stroke-linecap="round" stroke-linejoin="round"/>
<path d="M14.5696 11.9641V7.82941C14.5695 7.64815 14.5216 7.47011 14.4309 7.31318C14.3402 7.15624 14.2098 7.02592 14.0528 6.93529L10.435 4.86794C10.2778 4.77722 10.0996 4.72946 9.91812 4.72946C9.73668 4.72946 9.55843 4.77722 9.40129 4.86794L5.78344 6.93529C5.62646 7.02592 5.49607 7.15624 5.40535 7.31318C5.31464 7.47011 5.26679 7.64815 5.2666 7.82941V11.9641C5.26679 12.1454 5.31464 12.3234 5.40535 12.4803C5.49607 12.6373 5.62646 12.7676 5.78344 12.8582L9.40129 14.9256C9.55843 15.0163 9.73668 15.0641 9.91812 15.0641C10.0996 15.0641 10.2778 15.0163 10.435 14.9256L14.0528 12.8582C14.2098 12.7676 14.3402 12.6373 14.4309 12.4803C14.5216 12.3234 14.5695 12.1454 14.5696 11.9641Z" stroke="#181713" stroke-width="0.8" stroke-linecap="round" stroke-linejoin="round"/>
<path d="M5.41211 7.29131L9.92409 9.90133L14.4361 7.29131" stroke="#181713" stroke-width="0.8" stroke-linecap="round" stroke-linejoin="round"/>
<path d="M9.9209 15.1066V9.89691" stroke="#181713" stroke-width="0.8" stroke-linecap="round" stroke-linejoin="round"/>
</svg>
