<svg width="21" height="21" viewBox="0 0 21 21" fill="none" xmlns="http://www.w3.org/2000/svg">
<path d="M2.625 5.25H4.375H18.375" stroke="#5773A6" stroke-width="1.05" stroke-linecap="round" stroke-linejoin="round"/>
<path d="M16.6221 5.25V17.5C16.6221 17.9641 16.4377 18.4092 16.1095 18.7374C15.7813 19.0656 15.3362 19.25 14.8721 19.25H6.12207C5.65794 19.25 5.21282 19.0656 4.88463 18.7374C4.55644 18.4092 4.37207 17.9641 4.37207 17.5V5.25M6.99707 5.25V3.5C6.99707 3.03587 7.18145 2.59075 7.50963 2.26256C7.83782 1.93437 8.28294 1.75 8.74707 1.75H12.2471C12.7112 1.75 13.1563 1.93437 13.4845 2.26256C13.8127 2.59075 13.9971 3.03587 13.9971 3.5V5.25" stroke="#5773A6" stroke-width="1.05" stroke-linecap="round" stroke-linejoin="round"/>
</svg>
