<svg width="20" height="19" viewBox="0 0 20 19" fill="none" xmlns="http://www.w3.org/2000/svg">
<path d="M1.19633 9.38949C1.19584 10.9563 1.60836 12.4858 2.39262 13.834L1.12109 18.4405L5.87218 17.2044C7.18126 17.9126 8.65515 18.286 10.1549 18.2866H10.1588C15.0981 18.2866 19.119 14.2981 19.1211 9.3966C19.1219 7.02116 18.1904 4.78742 16.4984 3.10707C14.8062 1.42693 12.5562 0.500977 10.1588 0.5C5.21862 0.5 1.1983 4.48791 1.19633 9.38949ZM4.0257 13.6018L3.8483 13.3223C3.10257 12.1458 2.70896 10.7862 2.70952 9.39005C2.71114 5.31598 6.05267 2.0014 10.1616 2.0014C12.1514 2.00223 14.0215 2.77191 15.428 4.16837C16.8345 5.56498 17.6084 7.42149 17.6079 9.39605C17.6061 13.4701 14.2645 16.7851 10.1588 16.7851H10.1558C8.81898 16.7844 7.50786 16.4282 6.36444 15.755L6.09233 15.5949L3.27294 16.3283L4.0257 13.6017V13.6018Z" fill="#3C63AE" stroke="#F9F8F6" stroke-width="0.3"/>
<path d="M7.95752 6.23487C7.81262 5.91683 7.66014 5.91041 7.52235 5.90483C7.40952 5.90004 7.28053 5.9004 7.15167 5.9004C7.02268 5.9004 6.81311 5.94832 6.63597 6.13933C6.45865 6.33052 5.95898 6.79256 5.95898 7.73228C5.95898 8.67206 6.65206 9.58023 6.74868 9.7078C6.84542 9.83512 8.08668 11.8253 10.0525 12.5909C11.6864 13.2271 12.0188 13.1006 12.3734 13.0687C12.7281 13.0369 13.5178 12.6068 13.6789 12.1608C13.8401 11.7148 13.8401 11.3325 13.7918 11.2526C13.7434 11.1731 13.6144 11.1253 13.421 11.0298C13.2275 10.9342 12.2767 10.4722 12.0994 10.4084C11.9221 10.3447 11.7932 10.3129 11.6642 10.5042C11.5352 10.6951 11.1648 11.1253 11.0519 11.2526C10.9392 11.3803 10.8263 11.3962 10.6329 11.3007C10.4394 11.2048 9.8165 11.0034 9.07751 10.3527C8.50255 9.84645 8.11438 9.22123 8.00155 9.02998C7.88871 8.83902 7.98946 8.73551 8.08644 8.64033C8.17334 8.55475 8.27992 8.41729 8.37672 8.3058C8.47315 8.19425 8.50534 8.11467 8.56983 7.98728C8.63438 7.85978 8.60208 7.74823 8.5538 7.65269C8.50534 7.55716 8.1295 6.61252 7.95752 6.23487Z" fill="#3C63AE"/>
</svg>
