<svg width="11" height="13" viewBox="0 0 11 13" fill="none" xmlns="http://www.w3.org/2000/svg">
<path fill-rule="evenodd" clip-rule="evenodd" d="M5.5 2.92721C4.39299 2.92721 3.49557 3.82463 3.49557 4.93164C3.49557 6.03865 4.39299 6.93607 5.5 6.93607C6.60701 6.93607 7.50443 6.03865 7.50443 4.93164C7.50443 3.82463 6.60701 2.92721 5.5 2.92721ZM4.42069 4.93164C4.42069 4.33556 4.90392 3.85233 5.5 3.85233C6.09608 3.85233 6.57931 4.33556 6.57931 4.93164C6.57931 5.52772 6.09608 6.01095 5.5 6.01095C4.90392 6.01095 4.42069 5.52772 4.42069 4.93164Z" fill="#FDFCFC"/>
<path fill-rule="evenodd" clip-rule="evenodd" d="M5.5 0.151855C2.8602 0.151855 0.720215 2.29184 0.720215 4.93164C0.720215 5.80532 1.02407 6.69046 1.4467 7.50555C1.87142 8.32464 2.43234 9.10393 2.98432 9.7742C3.53744 10.4458 4.08927 11.0172 4.50232 11.4205C4.70913 11.6223 4.88186 11.7828 5.00352 11.8932C5.06436 11.9485 5.11248 11.9913 5.14575 12.0206C5.16239 12.0353 5.17532 12.0466 5.18427 12.0543C5.18875 12.0582 5.19224 12.0613 5.1947 12.0634L5.19762 12.0659L5.19849 12.0666C5.19859 12.0667 5.19897 12.0671 5.5 11.7159L5.19849 12.0666L5.5 12.3251L5.80103 12.0671L5.5 11.7159C5.80103 12.0671 5.80093 12.0671 5.80103 12.0671L5.80238 12.0659L5.8053 12.0634C5.80776 12.0613 5.81125 12.0582 5.81573 12.0543C5.82468 12.0466 5.83761 12.0353 5.85425 12.0206C5.88752 11.9913 5.93564 11.9485 5.99648 11.8932C6.11814 11.7828 6.29087 11.6223 6.49768 11.4205C6.91073 11.0172 7.46256 10.4458 8.01568 9.7742C8.56766 9.10393 9.12858 8.32464 9.5533 7.50555C9.97593 6.69046 10.2798 5.80532 10.2798 4.93164C10.2798 2.29184 8.1398 0.151855 5.5 0.151855ZM5.85145 10.7585C5.71721 10.8895 5.59832 11.002 5.5 11.0932C5.40168 11.002 5.28279 10.8895 5.14855 10.7585C4.75212 10.3715 4.22464 9.82504 3.69845 9.18609C3.17113 8.54578 2.65275 7.82174 2.26798 7.0797C1.88114 6.33364 1.64533 5.59982 1.64533 4.93164C1.64533 2.80277 3.37113 1.07698 5.5 1.07698C7.62887 1.07698 9.35467 2.80277 9.35467 4.93164C9.35467 5.59982 9.11886 6.33364 8.73202 7.0797C8.34726 7.82174 7.82887 8.54578 7.30155 9.18609C6.77536 9.82504 6.24788 10.3715 5.85145 10.7585Z" fill="#FDFCFC"/>
</svg>
