<svg width="18" height="17" viewBox="0 0 18 17" fill="none" xmlns="http://www.w3.org/2000/svg">
<path d="M8.60156 16.5C13.0198 16.5 16.6016 12.9183 16.6016 8.5C16.6016 4.08172 13.0198 0.5 8.60156 0.5C4.18328 0.5 0.601562 4.08172 0.601562 8.5C0.601562 12.9183 4.18328 16.5 8.60156 16.5Z" stroke="#F3F1EE" stroke-linecap="round" stroke-linejoin="round"/>
<path d="M1.10156 8.5H16.1016" stroke="#F3F1EE" stroke-linecap="round" stroke-linejoin="round"/>
<path d="M8.97171 0.662788C8.87698 0.55908 8.743 0.5 8.60254 0.5C8.46208 0.5 8.3281 0.55908 8.23337 0.662788C6.27566 2.80604 5.16311 5.58744 5.10265 8.48959C5.1025 8.49653 5.1025 8.50347 5.10265 8.51041C5.16311 11.4126 6.27566 14.194 8.23337 16.3372C8.3281 16.4409 8.46208 16.5 8.60254 16.5C8.743 16.5 8.87698 16.4409 8.97171 16.3372C10.9294 14.194 12.042 11.4126 12.1024 8.51041C12.1026 8.50347 12.1026 8.49653 12.1024 8.48959C12.042 5.58744 10.9294 2.80604 8.97171 0.662788Z" stroke="#F3F1EE" stroke-linecap="round" stroke-linejoin="round"/>
</svg>
